<?xml version="1.0" encoding="UTF-8" standalone="no"?>
<!-- Created with Inkscape (http://www.inkscape.org/) -->

<svg
   xmlns:dc="http://purl.org/dc/elements/1.1/"
   xmlns:cc="http://creativecommons.org/ns#"
   xmlns:rdf="http://www.w3.org/1999/02/22-rdf-syntax-ns#"
   xmlns:svg="http://www.w3.org/2000/svg"
   xmlns="http://www.w3.org/2000/svg"
   xmlns:sodipodi="http://sodipodi.sourceforge.net/DTD/sodipodi-0.dtd"
   xmlns:inkscape="http://www.inkscape.org/namespaces/inkscape"
   width="200"
   height="200"
   id="svg3072"
   version="1.1"
   inkscape:version="0.48.4 r9939"
   sodipodi:docname="New document 5">
  <defs
     id="defs3074" />
  <sodipodi:namedview
     id="base"
     pagecolor="#ffffff"
     bordercolor="#666666"
     borderopacity="1.0"
     inkscape:pageopacity="0.0"
     inkscape:pageshadow="2"
     inkscape:zoom="2.5908834"
     inkscape:cx="101.4089"
     inkscape:cy="98.461398"
     inkscape:document-units="px"
     inkscape:current-layer="layer1"
     showgrid="false"
     inkscape:window-width="1600"
     inkscape:window-height="837"
     inkscape:window-x="-8"
     inkscape:window-y="-8"
     inkscape:window-maximized="1" />
  <metadata
     id="metadata3077">
    <rdf:RDF>
      <cc:Work
         rdf:about="">
        <dc:format>image/svg+xml</dc:format>
        <dc:type
           rdf:resource="http://purl.org/dc/dcmitype/StillImage" />
        <dc:title></dc:title>
      </cc:Work>
    </rdf:RDF>
  </metadata>
  <g
     inkscape:label="Layer 1"
     inkscape:groupmode="layer"
     id="layer1"
     transform="translate(0,-852.36218)">
    <path
       style="fill:none;stroke:#000000;stroke-width:1px;stroke-linecap:butt;stroke-linejoin:miter;stroke-opacity:1"
       d="m 11.249601,938.47063 c 0,30.10556 0,30.44328 0,30.44328 l 18.14053,0.0483 0,0"
       id="path2994"
       inkscape:connector-curvature="0"
       sodipodi:nodetypes="cccc" />
    <path
       sodipodi:type="arc"
       style="fill:#00ff00;fill-opacity:1;stroke:#ffffff;stroke-width:6;stroke-miterlimit:4;stroke-opacity:1;stroke-dasharray:none"
       id="path2998"
       sodipodi:cx="51.526825"
       sodipodi:cy="79.288277"
       sodipodi:rx="19.491421"
       sodipodi:ry="19.008961"
       d="m 71.018246,79.288277 a 19.491421,19.008961 0 1 1 -38.982842,0 19.491421,19.008961 0 1 1 38.982842,0 z"
       transform="translate(-5.1540704,874.71759)" />
    <path
       sodipodi:type="spiral"
       style="fill:none;stroke:#000000;stroke-width:1px;stroke-linecap:butt;stroke-linejoin:miter;stroke-opacity:1"
       id="path3000"
       sodipodi:cx="73.913017"
       sodipodi:cy="65.875862"
       sodipodi:expansion="1"
       sodipodi:revolution="3.0645411"
       sodipodi:radius="14.475114"
       sodipodi:argument="-20.00276"
       sodipodi:t0="0"
       d="m 73.913017,65.875862 c 0.288141,-0.649422 1.017566,0.06801 1.079382,0.478909 0.167517,1.11352 -1.082811,1.784706 -2.037199,1.679855 -1.707175,-0.187554 -2.610515,-2.034778 -2.280328,-3.595489 0.484563,-2.290407 2.997183,-3.453951 5.153779,-2.880802 2.874404,0.763918 4.304486,3.96297 3.481275,6.71207 -1.035927,3.459462 -4.930289,5.158609 -8.27036,4.081748 -4.045274,-1.304224 -6.014795,-5.898455 -4.682221,-9.828651 1.570392,-4.631599 6.867147,-6.872273 11.38694,-5.282694 5.218281,1.835232 7.730615,7.83619 5.883168,12.945231 -2.099187,5.805217 -8.805479,8.58956 -14.503521,6.483641 -6.392341,-2.362523 -9.448944,-9.774951 -7.084114,-16.061812 2.625409,-6.979607 10.744558,-10.308657 17.620102,-7.684587 1.812671,0.691811 3.47627,1.758282 4.867236,3.110377"
       transform="matrix(1.3442321,0,0,1.2249113,-17.217019,875.12221)" />
    <path
       style="fill:none;stroke:#000000;stroke-width:1px;stroke-linecap:butt;stroke-linejoin:miter;stroke-opacity:1"
       d="m 108.12775,940.46202 0,27.98273 z"
       id="path3002"
       inkscape:connector-curvature="0" />
    <path
       sodipodi:type="arc"
       style="fill:#00ff00;fill-opacity:1;stroke:#ffffff;stroke-width:6;stroke-miterlimit:4;stroke-opacity:1;stroke-dasharray:none"
       id="path3008"
       sodipodi:cx="102.86067"
       sodipodi:cy="49.182716"
       sodipodi:rx="5.5965466"
       sodipodi:ry="5.5000544"
       d="m 108.45722,49.182716 a 5.5965466,5.5000544 0 1 1 -11.193095,0 5.5965466,5.5000544 0 1 1 11.193095,0 z"
       transform="matrix(0.67243914,0,0,0.68423632,39.056711,900.15145)" />
    <path
       style="fill:none;stroke:#000000;stroke-width:1.28407216px;stroke-linecap:butt;stroke-linejoin:miter;stroke-opacity:1"
       d="m 138.58084,941.73712 c 0,0 -23.32791,-4.0552 -23.32791,5.90705 0,10.85821 24.03591,2.70427 23.89967,14.90187 -0.0997,8.92656 -24.12836,4.29604 -24.12836,4.29604"
       id="path3010"
       inkscape:connector-curvature="0"
       sodipodi:nodetypes="cssc" />
    <path
       style="fill:none;stroke:#000000;stroke-width:1px;stroke-linecap:butt;stroke-linejoin:miter;stroke-opacity:1"
       d="m 147.20709,940.68555 0,27.98274 z"
       id="path3002-7"
       inkscape:connector-curvature="0" />
    <path
       sodipodi:type="arc"
       style="fill:#00ff00;fill-opacity:1;stroke:#ffffff;stroke-width:6;stroke-miterlimit:4;stroke-opacity:1;stroke-dasharray:none"
       id="path3008-4"
       sodipodi:cx="102.86067"
       sodipodi:cy="49.182716"
       sodipodi:rx="5.5965466"
       sodipodi:ry="5.5000544"
       d="m 108.45722,49.182716 a 5.5965466,5.5000544 0 1 1 -11.193095,0 5.5965466,5.5000544 0 1 1 11.193095,0 z"
       transform="matrix(0.67243914,0,0,0.68423632,78.136041,900.37498)" />
    <path
       style="fill:none;stroke:#000000;stroke-width:1.07575691px;stroke-linecap:butt;stroke-linejoin:miter;stroke-opacity:1"
       d="m 154.86784,968.53949 10.36883,-30.92453 7.82101,23.32586 7.67244,-22.8827 10.23002,30.51048"
       id="path3051"
       inkscape:connector-curvature="0" />
  </g>
</svg>
