<?xml version="1.0" encoding="UTF-8" standalone="no"?>
<!-- Created with Inkscape (http://www.inkscape.org/) -->

<svg
   xmlns:dc="http://purl.org/dc/elements/1.1/"
   xmlns:cc="http://creativecommons.org/ns#"
   xmlns:rdf="http://www.w3.org/1999/02/22-rdf-syntax-ns#"
   xmlns:svg="http://www.w3.org/2000/svg"
   xmlns="http://www.w3.org/2000/svg"
   xmlns:sodipodi="http://sodipodi.sourceforge.net/DTD/sodipodi-0.dtd"
   xmlns:inkscape="http://www.inkscape.org/namespaces/inkscape"
   width="16"
   height="16"
   id="svg2"
   version="1.1"
   inkscape:version="0.48.4 r9939"
   sodipodi:docname="bufferGate.svg">
  <defs
     id="defs4" />
  <sodipodi:namedview
     id="base"
     pagecolor="#ffffff"
     bordercolor="#666666"
     borderopacity="1.0"
     inkscape:pageopacity="0.0"
     inkscape:pageshadow="2"
     inkscape:zoom="29.797161"
     inkscape:cx="9.5427163"
     inkscape:cy="7.7490858"
     inkscape:document-units="px"
     inkscape:current-layer="layer1"
     showgrid="false"
     inkscape:window-width="784"
     inkscape:window-height="821"
     inkscape:window-x="0"
     inkscape:window-y="0"
     inkscape:window-maximized="0" />
  <metadata
     id="metadata7">
    <rdf:RDF>
      <cc:Work
         rdf:about="">
        <dc:format>image/svg+xml</dc:format>
        <dc:type
           rdf:resource="http://purl.org/dc/dcmitype/StillImage" />
        <dc:title></dc:title>
      </cc:Work>
    </rdf:RDF>
  </metadata>
  <g
     inkscape:label="Layer 1"
     inkscape:groupmode="layer"
     id="layer1"
     transform="translate(0,-1036.3622)">
    <rect
       style="fill:#999999;stroke:#000000;stroke-opacity:1"
       id="rect4134-4"
       width="11.770004"
       height="10.706139"
       x="2.4888"
       y="1040.2272" />
    <rect
       style="fill:#ffffff;stroke:#000000;stroke-opacity:1"
       id="rect4134"
       width="11.770004"
       height="10.706139"
       x="0.53171778"
       y="1038.1528" />
    <path
       style="fill:#0000ff;stroke:#0000ff;stroke-width:0.03356025;stroke-opacity:1"
       d="m 13.764595,1046.1502 0,-0.3691 -0.335602,0 -0.335603,0 0,-0.4363 0,-0.4363 0.335603,0 0.335602,0 0,-0.3692 0,-0.3691 0.486624,0 0.486623,0 0,0.3691 0,0.3692 0.318822,0 0.318823,0 0,0.4363 0,0.4363 -0.318823,0 -0.318822,0 0,0.3691 0,0.3692 -0.486623,0 -0.486624,0 0,-0.3692 z"
       id="path4201"
       inkscape:connector-curvature="0" />
  </g>
</svg>
