<?xml version="1.0" encoding="UTF-8" standalone="no"?>
<!-- Created with Inkscape (http://www.inkscape.org/) -->

<svg
   xmlns:dc="http://purl.org/dc/elements/1.1/"
   xmlns:cc="http://creativecommons.org/ns#"
   xmlns:rdf="http://www.w3.org/1999/02/22-rdf-syntax-ns#"
   xmlns:svg="http://www.w3.org/2000/svg"
   xmlns="http://www.w3.org/2000/svg"
   xmlns:sodipodi="http://sodipodi.sourceforge.net/DTD/sodipodi-0.dtd"
   xmlns:inkscape="http://www.inkscape.org/namespaces/inkscape"
   width="16"
   height="16"
   id="svg2"
   version="1.1"
   inkscape:version="0.48.4 r9939"
   sodipodi:docname="button.svg">
  <defs
     id="defs4" />
  <sodipodi:namedview
     id="base"
     pagecolor="#ffffff"
     bordercolor="#666666"
     borderopacity="1.0"
     inkscape:pageopacity="0.0"
     inkscape:pageshadow="2"
     inkscape:zoom="32.660402"
     inkscape:cx="9.2319664"
     inkscape:cy="7.7490858"
     inkscape:document-units="px"
     inkscape:current-layer="layer1"
     showgrid="false"
     inkscape:window-width="784"
     inkscape:window-height="821"
     inkscape:window-x="0"
     inkscape:window-y="0"
     inkscape:window-maximized="0" />
  <metadata
     id="metadata7">
    <rdf:RDF>
      <cc:Work
         rdf:about="">
        <dc:format>image/svg+xml</dc:format>
        <dc:type
           rdf:resource="http://purl.org/dc/dcmitype/StillImage" />
        <dc:title></dc:title>
      </cc:Work>
    </rdf:RDF>
  </metadata>
  <g
     inkscape:label="Layer 1"
     inkscape:groupmode="layer"
     id="layer1"
     transform="translate(0,-1036.3622)">
    <rect
       style="fill:#ffffff;stroke:#000000;stroke-width:1.12999654000000000;stroke-opacity:1"
       id="rect4134"
       width="12.814615"
       height="12.556197"
       x="1.402162"
       y="1038.0165" />
    <path
       style="fill:#00d700;fill-opacity:1;stroke:#00d700;stroke-width:0.01689535;stroke-opacity:1"
       d="m 6.4590658,1044.2011 0,-1.3284 1.3324512,0 1.3324511,0 0,1.3284 0,1.3284 -1.3324511,0 -1.3324512,0 0,-1.3284 z"
       id="path4209"
       inkscape:connector-curvature="0" />
    <path
       style="fill:#008000;fill-opacity:1;stroke:#008000;stroke-width:0.05327548;stroke-opacity:1"
       d="m 7.8197082,1046.0308 0,1.8238 2.1595199,-0.017 2.1595199,-0.017 0.01277,-1.7792 0.01277,-1.7792 -0.652183,0 -0.652183,0 0,1.0293 0,1.0292 -0.8686329,0 -0.868634,0 0,-1.0586 0,-1.0587 -0.651476,0 -0.6514751,0 0,1.8239 z"
       id="path4256"
       inkscape:connector-curvature="0" />
    <path
       style="fill:#00ff00;fill-opacity:1;stroke:#00ff00;stroke-width:0.05418574;stroke-opacity:1"
       d="m 3.435281,1042.3517 0,-1.8871 2.159077,0.019 2.1590769,0.019 0.012751,1.8408 0.012751,1.8409 -0.6520488,0 -0.6520491,0 0,-1.0649 0,-1.0651 -0.8684559,0 -0.8684554,0 0,1.0954 0,1.0954 -0.6513416,0 -0.6513416,0 0,-1.887 z"
       id="path4256-8"
       inkscape:connector-curvature="0" />
  </g>
</svg>
