<?xml version="1.0" encoding="UTF-8" standalone="no"?>
<!-- Created with Inkscape (http://www.inkscape.org/) -->

<svg
   xmlns:dc="http://purl.org/dc/elements/1.1/"
   xmlns:cc="http://creativecommons.org/ns#"
   xmlns:rdf="http://www.w3.org/1999/02/22-rdf-syntax-ns#"
   xmlns:svg="http://www.w3.org/2000/svg"
   xmlns="http://www.w3.org/2000/svg"
   xmlns:sodipodi="http://sodipodi.sourceforge.net/DTD/sodipodi-0.dtd"
   xmlns:inkscape="http://www.inkscape.org/namespaces/inkscape"
   width="16"
   height="16"
   id="svg2"
   version="1.1"
   inkscape:version="0.48.4 r9939"
   sodipodi:docname="counter.svg">
  <defs
     id="defs4" />
  <sodipodi:namedview
     id="base"
     pagecolor="#ffffff"
     bordercolor="#666666"
     borderopacity="1.0"
     inkscape:pageopacity="0.0"
     inkscape:pageshadow="2"
     inkscape:zoom="17.360249"
     inkscape:cx="5.8839558"
     inkscape:cy="7.7490858"
     inkscape:document-units="px"
     inkscape:current-layer="layer1"
     showgrid="false"
     inkscape:window-width="784"
     inkscape:window-height="821"
     inkscape:window-x="0"
     inkscape:window-y="0"
     inkscape:window-maximized="0" />
  <metadata
     id="metadata7">
    <rdf:RDF>
      <cc:Work
         rdf:about="">
        <dc:format>image/svg+xml</dc:format>
        <dc:type
           rdf:resource="http://purl.org/dc/dcmitype/StillImage" />
        <dc:title></dc:title>
      </cc:Work>
    </rdf:RDF>
  </metadata>
  <g
     inkscape:label="Layer 1"
     inkscape:groupmode="layer"
     id="layer1"
     transform="translate(0,-1036.3622)">
    <path
       style="fill:none;stroke:#000000;stroke-width:1px;stroke-linecap:butt;stroke-linejoin:miter;stroke-opacity:1"
       d="m 12.787835,1037.0974 0,13.4791 -8.5340289,-3.0355 0,-7.1602 z"
       id="path4400"
       inkscape:connector-curvature="0"
       sodipodi:nodetypes="ccccc" />
    <path
       style="fill:none;stroke:#000000;stroke-width:1.03397191px;stroke-linecap:butt;stroke-linejoin:miter;stroke-opacity:1"
       d="m 7.430769,1048.9405 0,3.3872 z"
       id="path4402"
       inkscape:connector-curvature="0" />
    <path
       style="fill:#008000;fill-opacity:1;stroke:#008000;stroke-width:0.05760286;stroke-opacity:1"
       d="m 12.336557,1039.3931 0,-0.5472 -0.40322,0 -0.403221,0 0,-0.432 0,-0.4321 0.403221,0 0.40322,0 0,-0.576 0,-0.576 0.460823,0 0.460822,0 0,0.576 0,0.576 0.460823,0 0.460823,0 0,0.4321 0,0.432 -0.460823,0 -0.460823,0 0,0.5472 0,0.5472 -0.460822,0 -0.460823,0 0,-0.5472 z"
       id="path4408"
       inkscape:connector-curvature="0" />
    <path
       style="fill:#008000;fill-opacity:1;stroke:#008000;stroke-width:0.05760286;stroke-opacity:1"
       d="m 12.320712,1043.0576 0,-0.5472 -0.40322,0 -0.403221,0 0,-0.432 0,-0.4321 0.403221,0 0.40322,0 0,-0.576 0,-0.576 0.460823,0 0.460822,0 0,0.576 0,0.576 0.460823,0 0.460823,0 0,0.4321 0,0.432 -0.460823,0 -0.460823,0 0,0.5472 0,0.5472 -0.460822,0 -0.460823,0 0,-0.5472 z"
       id="path4408-2"
       inkscape:connector-curvature="0" />
    <path
       style="fill:#008000;fill-opacity:1;stroke:#008000;stroke-width:0.05760286;stroke-opacity:1"
       d="m 12.320712,1050.3533 0,-0.5472 -0.40322,0 -0.403221,0 0,-0.432 0,-0.4321 0.403221,0 0.40322,0 0,-0.576 0,-0.576 0.460823,0 0.460822,0 0,0.576 0,0.576 0.460823,0 0.460823,0 0,0.4321 0,0.432 -0.460823,0 -0.460823,0 0,0.5472 0,0.5472 -0.460822,0 -0.460823,0 0,-0.5472 z"
       id="path4408-7"
       inkscape:connector-curvature="0" />
    <path
       style="fill:#00ff00;fill-opacity:1;stroke:#00ff00;stroke-width:0.05937168;stroke-opacity:1"
       d="m 12.300679,1046.6652 0,-0.5469 -0.428602,0 -0.428603,0 0,-0.4317 0,-0.4319 0.428603,0 0.428602,0 0,-0.5757 0,-0.5756 0.489831,0 0.48983,0 0,0.5756 0,0.5757 0.489832,0 0.489831,0 0,0.4319 0,0.4317 -0.489831,0 -0.489832,0 0,0.5469 0,0.5469 -0.48983,0 -0.489831,0 0,-0.5469 z"
       id="path4408-7-9"
       inkscape:connector-curvature="0" />
  </g>
</svg>
