<?xml version="1.0" encoding="UTF-8" standalone="no"?>
<!-- Created with Inkscape (http://www.inkscape.org/) -->

<svg
   xmlns:dc="http://purl.org/dc/elements/1.1/"
   xmlns:cc="http://creativecommons.org/ns#"
   xmlns:rdf="http://www.w3.org/1999/02/22-rdf-syntax-ns#"
   xmlns:svg="http://www.w3.org/2000/svg"
   xmlns="http://www.w3.org/2000/svg"
   xmlns:sodipodi="http://sodipodi.sourceforge.net/DTD/sodipodi-0.dtd"
   xmlns:inkscape="http://www.inkscape.org/namespaces/inkscape"
   width="16"
   height="16"
   id="svg2"
   version="1.1"
   inkscape:version="0.48.4 r9939"
   sodipodi:docname="divider.svg">
  <defs
     id="defs4" />
  <sodipodi:namedview
     id="base"
     pagecolor="#ffffff"
     bordercolor="#666666"
     borderopacity="1.0"
     inkscape:pageopacity="0.0"
     inkscape:pageshadow="2"
     inkscape:zoom="28.461048"
     inkscape:cx="8.6008325"
     inkscape:cy="7.7490858"
     inkscape:document-units="px"
     inkscape:current-layer="layer1"
     showgrid="false"
     inkscape:window-width="784"
     inkscape:window-height="821"
     inkscape:window-x="0"
     inkscape:window-y="0"
     inkscape:window-maximized="0" />
  <metadata
     id="metadata7">
    <rdf:RDF>
      <cc:Work
         rdf:about="">
        <dc:format>image/svg+xml</dc:format>
        <dc:type
           rdf:resource="http://purl.org/dc/dcmitype/StillImage" />
        <dc:title></dc:title>
      </cc:Work>
    </rdf:RDF>
  </metadata>
  <g
     inkscape:label="Layer 1"
     inkscape:groupmode="layer"
     id="layer1"
     transform="translate(0,-1036.3622)">
    <rect
       style="fill:#ffffff;fill-opacity:1;stroke:#000000;stroke-width:0.91677117;stroke-opacity:1"
       id="rect4570"
       width="11.399422"
       height="14.267883"
       x="2.3724594"
       y="1037.6318" />
    <path
       style="fill:#b3b3b3;fill-opacity:1;stroke:#b3b3b3;stroke-width:0.05760286;stroke-opacity:1"
       d="m 3.83555,1040.013 0,-1.0945 1.00805,0 1.0080501,0 0,1.0945 0,1.0945 -1.0080501,0 -1.00805,0 0,-1.0945 z"
       id="path4630"
       inkscape:connector-curvature="0" />
    <path
       style="fill:#00ff00;fill-opacity:1;stroke:#00ff00;stroke-width:0.04968944;stroke-opacity:1"
       d="m 6.9631327,1039.9798 0,-1.0932 0.9937888,0 0.9937889,0 0,1.0932 0,1.0931 -0.9937889,0 -0.9937888,0 0,-1.0931 z"
       id="path4632"
       inkscape:connector-curvature="0" />
    <path
       style="fill:#b3b3b3;fill-opacity:1;stroke:#b3b3b3;stroke-width:0.05760286;stroke-opacity:1"
       d="m 10.305658,1040.0647 0,-1.0945 1.00805,0 1.008051,0 0,1.0945 0,1.0945 -1.008051,0 -1.00805,0 0,-1.0945 z"
       id="path4630-1"
       inkscape:connector-curvature="0" />
    <path
       style="fill:#00ff00;fill-opacity:1;stroke:#00ff00;stroke-width:0.04968944;stroke-opacity:1"
       d="m 3.8198076,1043.0864 0,-1.0932 0.9937888,0 0.9937889,0 0,1.0932 0,1.0931 -0.9937889,0 -0.9937888,0 0,-1.0931 z"
       id="path4632-3"
       inkscape:connector-curvature="0" />
    <path
       style="fill:#b3b3b3;fill-opacity:1;stroke:#b3b3b3;stroke-width:0.05760286;stroke-opacity:1"
       d="m 6.8974916,1043.0512 0,-1.0945 1.00805,0 1.0080501,0 0,1.0945 0,1.0945 -1.0080501,0 -1.00805,0 0,-1.0945 z"
       id="path4630-8"
       inkscape:connector-curvature="0" />
    <path
       style="fill:#00ff00;fill-opacity:1;stroke:#00ff00;stroke-width:0.04968944;stroke-opacity:1"
       d="m 10.249648,1042.9459 0,-1.0932 0.993789,0 0.993789,0 0,1.0932 0,1.0931 -0.993789,0 -0.993789,0 0,-1.0931 z"
       id="path4632-7"
       inkscape:connector-curvature="0" />
    <path
       style="fill:#00ff00;fill-opacity:1;stroke:#00ff00;stroke-width:0.04968944;stroke-opacity:1"
       d="m 3.8198076,1046.2487 0,-1.0932 0.9937888,0 0.9937889,0 0,1.0932 0,1.0931 -0.9937889,0 -0.9937888,0 0,-1.0931 z"
       id="path4632-4"
       inkscape:connector-curvature="0" />
    <path
       style="fill:#00ff00;fill-opacity:1;stroke:#00ff00;stroke-width:0.04968944;stroke-opacity:1"
       d="m 6.9820243,1046.2135 0,-1.0932 0.9937888,0 0.9937889,0 0,1.0932 0,1.0931 -0.9937889,0 -0.9937888,0 0,-1.0931 z"
       id="path4632-2"
       inkscape:connector-curvature="0" />
    <path
       style="fill:#00ff00;fill-opacity:1;stroke:#00ff00;stroke-width:0.04968944;stroke-opacity:1"
       d="m 10.179377,1046.1081 0,-1.0932 0.993789,0 0.993789,0 0,1.0932 0,1.0931 -0.993789,0 -0.993789,0 0,-1.0931 z"
       id="path4632-77"
       inkscape:connector-curvature="0" />
    <path
       style="fill:#00ff00;fill-opacity:1;stroke:#00ff00;stroke-width:0.04968944;stroke-opacity:1"
       d="m 3.7495362,1049.3406 0,-1.0932 0.9937888,0 0.9937889,0 0,1.0932 0,1.0931 -0.9937889,0 -0.9937888,0 0,-1.0931 z"
       id="path4632-9"
       inkscape:connector-curvature="0" />
    <path
       style="fill:#b3b3b3;fill-opacity:1;stroke:#b3b3b3;stroke-width:0.05760286;stroke-opacity:1"
       d="m 7.1083061,1049.3406 0,-1.0945 1.00805,0 1.0080501,0 0,1.0945 0,1.0945 -1.0080501,0 -1.00805,0 0,-1.0945 z"
       id="path4630-8-3"
       inkscape:connector-curvature="0" />
    <path
       style="fill:#00ff00;fill-opacity:1;stroke:#00ff00;stroke-width:0.04968944;stroke-opacity:1"
       d="m 10.214512,1049.4109 0,-1.0932 0.993789,0 0.993789,0 0,1.0932 0,1.0931 -0.993789,0 -0.993789,0 0,-1.0931 z"
       id="path4632-77-1"
       inkscape:connector-curvature="0" />
    <path
       style="fill:#00ff00;fill-opacity:1;stroke:#00ff00;stroke-width:0.02353212;stroke-opacity:1"
       d="m 5.8274781,1051.9582 0,-0.5084 0.4793872,0 0.4793872,0 0,0.5084 0,0.5082 -0.4793872,0 -0.4793872,0 0,-0.5082 z"
       id="path4632-9-9"
       inkscape:connector-curvature="0" />
    <path
       style="fill:#00ff00;fill-opacity:1;stroke:#00ff00;stroke-width:0.02353212;stroke-opacity:1"
       d="m 9.2180773,1051.9406 0,-0.5084 0.4793872,0 0.4793875,0 0,0.5084 0,0.5082 -0.4793875,0 -0.4793872,0 0,-0.5082 z"
       id="path4632-9-9-8"
       inkscape:connector-curvature="0" />
  </g>
</svg>
