<?xml version="1.0" encoding="UTF-8" standalone="no"?>
<!-- Created with Inkscape (http://www.inkscape.org/) -->

<svg
   xmlns:dc="http://purl.org/dc/elements/1.1/"
   xmlns:cc="http://creativecommons.org/ns#"
   xmlns:rdf="http://www.w3.org/1999/02/22-rdf-syntax-ns#"
   xmlns:svg="http://www.w3.org/2000/svg"
   xmlns="http://www.w3.org/2000/svg"
   xmlns:sodipodi="http://sodipodi.sourceforge.net/DTD/sodipodi-0.dtd"
   xmlns:inkscape="http://www.inkscape.org/namespaces/inkscape"
   width="16"
   height="16"
   id="svg2"
   version="1.1"
   inkscape:version="0.48.4 r9939"
   sodipodi:docname="New document 1">
  <defs
     id="defs4" />
  <sodipodi:namedview
     id="base"
     pagecolor="#ffffff"
     bordercolor="#666666"
     borderopacity="1.0"
     inkscape:pageopacity="0.0"
     inkscape:pageshadow="2"
     inkscape:zoom="28.175"
     inkscape:cx="8.1290691"
     inkscape:cy="7.8294711"
     inkscape:document-units="px"
     inkscape:current-layer="layer1"
     showgrid="false"
     inkscape:window-width="784"
     inkscape:window-height="821"
     inkscape:window-x="0"
     inkscape:window-y="0"
     inkscape:window-maximized="0" />
  <metadata
     id="metadata7">
    <rdf:RDF>
      <cc:Work
         rdf:about="">
        <dc:format>image/svg+xml</dc:format>
        <dc:type
           rdf:resource="http://purl.org/dc/dcmitype/StillImage" />
        <dc:title></dc:title>
      </cc:Work>
    </rdf:RDF>
  </metadata>
  <g
     inkscape:label="Layer 1"
     inkscape:groupmode="layer"
     id="layer1"
     transform="translate(0,-1036.3622)">
    <path
       style="fill:#0000ff;fill-opacity:1;stroke:#0000ff;stroke-width:0.03549246;stroke-opacity:1"
       d="m 11.724455,1049.2408 c -0.195208,-0.116 -0.373288,-0.2221 -0.395733,-0.2359 -0.02715,-0.017 0.124125,-0.3101 0.45181,-0.8767 l 0.279664,-0.8873 0.213675,-2.2007 -0.283222,-1.9878 -1.198027,-1.7301 -1.5174597,-1.3041 -1.9047439,-0.1775 -2.0112209,0.1775 -1.2508869,0.5868 c -0.7270294,0.4204 -1.3325818,0.7518 -1.345672,0.7365 -0.058909,-0.069 -0.461289,-0.7485 -0.4600895,-0.7769 7.379e-4,-0.017 0.6053148,-0.4191 1.3435042,-0.8925 l 1.3421625,-0.6123 2.3748014,-0.1064 1.1992302,0.021 1.0690946,0.2274 0.944197,0.5622 0.892067,0.8495 1.410354,1.9795 0.390417,2.3475 -0.248447,2.596 -0.327113,0.9258 c -0.316558,0.5483 -0.584082,0.9952 -0.594499,0.9931 -0.01042,0 -0.178654,-0.099 -0.373863,-0.2146 z"
       id="path2989"
       inkscape:connector-curvature="0"
       sodipodi:nodetypes="ccsccccccccccccccccccccccc" />
  </g>
</svg>
