<?xml version="1.0" encoding="UTF-8" standalone="no"?>
<!-- Created with Inkscape (http://www.inkscape.org/) -->

<svg
   xmlns:dc="http://purl.org/dc/elements/1.1/"
   xmlns:cc="http://creativecommons.org/ns#"
   xmlns:rdf="http://www.w3.org/1999/02/22-rdf-syntax-ns#"
   xmlns:svg="http://www.w3.org/2000/svg"
   xmlns="http://www.w3.org/2000/svg"
   xmlns:sodipodi="http://sodipodi.sourceforge.net/DTD/sodipodi-0.dtd"
   xmlns:inkscape="http://www.inkscape.org/namespaces/inkscape"
   width="16"
   height="16"
   id="svg2"
   version="1.1"
   inkscape:version="0.48.4 r9939"
   sodipodi:docname="drawarc.svg">
  <defs
     id="defs4" />
  <sodipodi:namedview
     id="base"
     pagecolor="#ffffff"
     bordercolor="#666666"
     borderopacity="1.0"
     inkscape:pageopacity="0.0"
     inkscape:pageshadow="2"
     inkscape:zoom="19.752785"
     inkscape:cx="8.1306347"
     inkscape:cy="7.830979"
     inkscape:document-units="px"
     inkscape:current-layer="layer1"
     showgrid="false"
     inkscape:window-width="1600"
     inkscape:window-height="837"
     inkscape:window-x="-8"
     inkscape:window-y="-8"
     inkscape:window-maximized="1" />
  <metadata
     id="metadata7">
    <rdf:RDF>
      <cc:Work
         rdf:about="">
        <dc:format>image/svg+xml</dc:format>
        <dc:type
           rdf:resource="http://purl.org/dc/dcmitype/StillImage" />
        <dc:title />
      </cc:Work>
    </rdf:RDF>
  </metadata>
  <g
     inkscape:label="Layer 1"
     inkscape:groupmode="layer"
     id="layer1"
     transform="translate(0,-1036.3622)">
    <path
       style="fill:#0000ff;fill-opacity:1;stroke:#0000ff;stroke-width:0.03549246;stroke-opacity:1"
       d="m 11.724455,1049.2408 c -0.132554,-0.078 -0.353486,-0.088 -0.395733,-0.2359 -0.09044,-0.3161 0.32664,-0.5727 0.45181,-0.8767 0.11807,-0.2868 0.217733,-0.5834 0.279664,-0.8873 0.147188,-0.7222 0.23016,-1.4639 0.213675,-2.2007 -0.01497,-0.6691 -0.03896,-1.3647 -0.283222,-1.9878 -0.256006,-0.6531 -0.728538,-1.2089 -1.198027,-1.7301 -0.446384,-0.4955 -0.9152282,-1.0175 -1.5174597,-1.3041 -0.6444893,-0.3067 -1.3935749,-0.3902 -2.107247,-0.38 -0.6160051,0.01 -1.2244798,0.1845 -1.8087178,0.38 -0.4367657,0.1461 -0.8402028,0.3783 -1.2508869,0.5868 -0.455968,0.2314 -1.3325818,0.7518 -1.345672,0.7365 -0.058909,-0.069 -0.461289,-0.7485 -0.4600895,-0.7769 7.379e-4,-0.017 0.8735403,-0.6314 1.3435042,-0.8925 0.4298413,-0.2388 0.8712022,-0.4708 1.3421625,-0.6123 0.6365322,-0.1912 1.3056972,-0.2825 1.9697952,-0.3089 0.5358723,-0.021 1.077305,0.023 1.6042364,0.1222 0.3663133,0.069 0.7283168,0.1775 1.0690946,0.3287 0.3348145,0.1486 0.652372,0.3408 0.944197,0.5622 0.32713,0.2482 0.623034,0.5393 0.892067,0.8495 0.530828,0.6121 1.100889,1.2308 1.410354,1.9795 0.302998,0.7331 0.362901,1.5547 0.390417,2.3475 0.03015,0.8688 -0.06084,1.7472 -0.248447,2.596 -0.07064,0.3196 -0.187845,0.6296 -0.327113,0.9258 -0.164168,0.3491 -0.584082,0.9952 -0.594499,0.9931 -0.01042,0 -0.249835,-0.142 -0.373863,-0.2146 z"
       id="path2989"
       inkscape:connector-curvature="0"
       sodipodi:nodetypes="aaaaaaaaaaaccaaaaaaaaaaaca" />
  </g>
</svg>
