<?xml version="1.0" encoding="UTF-8" standalone="no"?>
<!-- Created with Inkscape (http://www.inkscape.org/) -->

<svg
   xmlns:dc="http://purl.org/dc/elements/1.1/"
   xmlns:cc="http://creativecommons.org/ns#"
   xmlns:rdf="http://www.w3.org/1999/02/22-rdf-syntax-ns#"
   xmlns:svg="http://www.w3.org/2000/svg"
   xmlns="http://www.w3.org/2000/svg"
   xmlns:sodipodi="http://sodipodi.sourceforge.net/DTD/sodipodi-0.dtd"
   xmlns:inkscape="http://www.inkscape.org/namespaces/inkscape"
   width="16"
   height="16"
   id="svg2"
   version="1.1"
   inkscape:version="0.48.4 r9939"
   sodipodi:docname="drawcurv.svg">
  <defs
     id="defs4" />
  <sodipodi:namedview
     id="base"
     pagecolor="#ffffff"
     bordercolor="#666666"
     borderopacity="1.0"
     inkscape:pageopacity="0.0"
     inkscape:pageshadow="2"
     inkscape:zoom="45.36"
     inkscape:cx="8.132514"
     inkscape:cy="7.832789"
     inkscape:document-units="px"
     inkscape:current-layer="layer1"
     showgrid="false"
     inkscape:window-width="1600"
     inkscape:window-height="837"
     inkscape:window-x="-8"
     inkscape:window-y="-8"
     inkscape:window-maximized="1" />
  <metadata
     id="metadata7">
    <rdf:RDF>
      <cc:Work
         rdf:about="">
        <dc:format>image/svg+xml</dc:format>
        <dc:type
           rdf:resource="http://purl.org/dc/dcmitype/StillImage" />
        <dc:title />
      </cc:Work>
    </rdf:RDF>
  </metadata>
  <g
     inkscape:label="Layer 1"
     inkscape:groupmode="layer"
     id="layer1"
     transform="translate(0,-1036.3622)">
    <path
       style="fill:#0000ff;fill-opacity:1;stroke:#0000ff;stroke-width:0.02741595;stroke-opacity:1"
       d="m 9.9209964,1048.8542 c -0.1738096,-0.1412 -0.7904393,-0.3997 -0.5553741,-0.378 -0.01619,-0.017 0.1982223,-0.3157 0.269376,-0.487 0.1418155,-0.3415 0.2465175,-0.7009 0.3087094,-1.0654 0.1276653,-0.7482 0.1400963,-1.5145 0.1273963,-2.2734 -0.01054,-0.63 -0.02103,-1.2703 -0.1688613,-1.8828 -0.1490361,-0.6175 -0.415776,-1.2061 -0.7142826,-1.7669 -0.2332745,-0.4382 -0.4352155,-0.9381 -0.8337481,-1.2341 -0.2883663,-0.2142 -0.6710111,-0.292 -1.0291603,-0.3196 -0.4028691,-0.031 -0.8280691,0.018 -1.1991213,0.1776 -0.290573,0.1253 -0.506476,0.3803 -0.7457983,0.5873 -0.294161,0.2544 -0.8385977,0.8184 -0.8464023,0.8031 -0.017083,0.068 -0.102324,-0.2544 -0.4286335,-0.7554 -0.076933,-0.1181 0.5764841,-0.7452 0.9332932,-1.0475 0.2605152,-0.2208 0.5421247,-0.4395 0.8663558,-0.5466 0.4494279,-0.1484 0.9427195,-0.096 1.4158937,-0.1065 0.2383736,-0.01 0.4806832,-0.023 0.7149994,0.021 0.2217109,0.042 0.4467466,0.107 0.637411,0.2276 0.2242022,0.1418 0.3977114,0.355 0.562945,0.5626 0.2082039,0.2615 0.3774337,0.5537 0.531864,0.8502 0.3313996,0.6362 0.6633346,1.286 0.8408746,1.981 0.19476,0.7625 0.216326,1.5625 0.232773,2.3493 0.01813,0.8672 -0.03378,1.7381 -0.148128,2.5979 -0.04161,0.3128 -0.109324,0.6228 -0.19503,0.9265 -0.09552,0.3385 -0.348239,0.996 -0.354449,0.9939 -0.0062,0 -0.142815,-0.1497 -0.2229026,-0.2148 z"
       id="path2989"
       inkscape:connector-curvature="0"
       sodipodi:nodetypes="acaaaaaaaaacsaaaaaaaaaaaca" />
  </g>
</svg>
