<?xml version="1.0" encoding="UTF-8" standalone="no"?>
<!-- Created with Inkscape (http://www.inkscape.org/) -->

<svg
   xmlns:dc="http://purl.org/dc/elements/1.1/"
   xmlns:cc="http://creativecommons.org/ns#"
   xmlns:rdf="http://www.w3.org/1999/02/22-rdf-syntax-ns#"
   xmlns:svg="http://www.w3.org/2000/svg"
   xmlns="http://www.w3.org/2000/svg"
   xmlns:sodipodi="http://sodipodi.sourceforge.net/DTD/sodipodi-0.dtd"
   xmlns:inkscape="http://www.inkscape.org/namespaces/inkscape"
   width="16"
   height="16"
   id="svg2"
   version="1.1"
   inkscape:version="0.48.4 r9939"
   sodipodi:docname="menu.svg">
  <defs
     id="defs4" />
  <sodipodi:namedview
     id="base"
     pagecolor="#ffffff"
     bordercolor="#666666"
     borderopacity="1.0"
     inkscape:pageopacity="0.0"
     inkscape:pageshadow="2"
     inkscape:zoom="26.070765"
     inkscape:cx="6.9616792"
     inkscape:cy="6.7245648"
     inkscape:document-units="px"
     inkscape:current-layer="layer1"
     showgrid="false"
     inkscape:window-width="784"
     inkscape:window-height="821"
     inkscape:window-x="0"
     inkscape:window-y="0"
     inkscape:window-maximized="0" />
  <metadata
     id="metadata7">
    <rdf:RDF>
      <cc:Work
         rdf:about="">
        <dc:format>image/svg+xml</dc:format>
        <dc:type
           rdf:resource="http://purl.org/dc/dcmitype/StillImage" />
        <dc:title></dc:title>
      </cc:Work>
    </rdf:RDF>
  </metadata>
  <g
     inkscape:label="Layer 1"
     inkscape:groupmode="layer"
     id="layer1"
     transform="translate(0,-1036.3622)">
    <rect
       style="fill:#ffffff;fill-opacity:1;stroke:#000000;stroke-opacity:1"
       id="rect2983"
       width="15.035999"
       height="9.2824278"
       x="0.49864283"
       y="1040.2797" />
    <rect
       style="fill:#666666;fill-opacity:1;stroke:#000000;stroke-opacity:1"
       id="rect2985"
       width="4.1809282"
       height="2.3014286"
       x="0.49864283"
       y="1038.0166" />
    <path
       style="fill:#4d4d4d;fill-opacity:1;stroke:#4d4d4d;stroke-width:0.03877241000000000;stroke-opacity:1"
       d="m 1.0098192,1044.9971 0,-0.4793 7.0181885,0 7.0181883,0 0,0.4793 0,0.4792 -7.0181883,0 -7.0181885,0 0,-0.4792 z"
       id="path2989"
       inkscape:connector-curvature="0" />
    <path
       style="fill:#4d4d4d;fill-opacity:1;stroke:#4d4d4d;stroke-width:0.03877241;stroke-opacity:1"
       d="m 0.99845405,1046.9539 0,-0.4793 7.01818795,0 7.018189,0 0,0.4793 0,0.4792 -7.018189,0 -7.01818795,0 0,-0.4792 z"
       id="path2989-1"
       inkscape:connector-curvature="0" />
    <path
       style="fill:#808080;fill-opacity:1;stroke:#808080;stroke-width:0.03835714;stroke-opacity:1"
       d="m 1.8908652,1042.1203 0,-0.4795 1.8603213,0 1.8603216,0 0,0.4795 0,0.4794 -1.8603216,0 -1.8603213,0 0,-0.4794 z"
       id="path3013"
       inkscape:connector-curvature="0" />
    <path
       style="fill:#808080;fill-opacity:1;stroke:#808080;stroke-width:0.04280522;stroke-opacity:1"
       d="m 1.9117631,1044.0004 0,-0.4775 2.3267008,0 2.3267013,0 0,0.4775 0,0.4774 -2.3267013,0 -2.3267008,0 0,-0.4774 z"
       id="path3013-7"
       inkscape:connector-curvature="0" />
    <path
       style="fill:#808080;fill-opacity:1;stroke:#808080;stroke-width:0.04280522;stroke-opacity:1"
       d="m 2.0076559,1045.995 0,-0.4775 2.3267008,0 2.3267013,0 0,0.4775 0,0.4774 -2.3267013,0 -2.3267008,0 0,-0.4774 z"
       id="path3013-7-4"
       inkscape:connector-curvature="0" />
    <path
       style="fill:#808080;fill-opacity:1;stroke:#808080;stroke-width:0.05122321;stroke-opacity:1"
       d="m 1.953386,1047.9128 0,-0.4736 3.3590778,0 3.3590782,0 0,0.4736 0,0.4735 -3.3590782,0 -3.3590778,0 0,-0.4735 z"
       id="path3013-7-0"
       inkscape:connector-curvature="0" />
    <path
       style="fill:#808080;fill-opacity:1;stroke:#808080;stroke-width:0.02871857;stroke-opacity:1"
       d="m 11.873908,1042.1976 0,-0.484 1.03327,0 1.033269,0 0,0.484 0,0.4839 -1.033269,0 -1.03327,0 0,-0.4839 z"
       id="path3013-7-9"
       inkscape:connector-curvature="0" />
    <path
       style="fill:#808080;fill-opacity:1;stroke:#808080;stroke-width:0.02871857;stroke-opacity:1"
       d="m 11.85473,1044.0004 0,-0.484 1.03327,0 1.033269,0 0,0.484 0,0.4839 -1.033269,0 -1.03327,0 0,-0.4839 z"
       id="path3013-7-9-8"
       inkscape:connector-curvature="0" />
    <path
       style="fill:#808080;fill-opacity:1;stroke:#808080;stroke-width:0.02871857;stroke-opacity:1"
       d="m 11.893087,1045.995 0,-0.484 1.03327,0 1.033269,0 0,0.484 0,0.4839 -1.033269,0 -1.03327,0 0,-0.4839 z"
       id="path3013-7-9-2"
       inkscape:connector-curvature="0" />
    <path
       style="fill:#000000;fill-opacity:1;stroke:#000000;stroke-width:0.02122418;stroke-opacity:1"
       d="m 13.938595,1045.995 0,-0.4874 0.560405,0 0.560405,0 0,0.4874 0,0.4873 -0.560405,0 -0.560405,0 0,-0.4873 z"
       id="path3013-7-9-4"
       inkscape:connector-curvature="0" />
    <path
       style="fill:#000000;fill-opacity:1;stroke:#000000;stroke-width:0.02122418;stroke-opacity:1"
       d="m 0.93552343,1045.995 0,-0.4874 0.56040497,0 0.560405,0 0,0.4874 0,0.4873 -0.560405,0 -0.56040497,0 0,-0.4873 z"
       id="path3013-7-9-4-5"
       inkscape:connector-curvature="0" />
    <path
       style="fill:#000000;fill-opacity:1;stroke:#000000;stroke-width:0.04507621;stroke-opacity:1"
       d="m 6.6973126,1045.9566 0,-0.4766 2.5851161,0 2.5851153,0 0,0.4766 0,0.4765 -2.5851153,0 -2.5851161,0 0,-0.4765 z"
       id="path3013-7-9-4-51"
       inkscape:connector-curvature="0" />
  </g>
</svg>
