<?xml version="1.0" encoding="UTF-8" standalone="no"?>
<!-- Created with Inkscape (http://www.inkscape.org/) -->

<svg
   xmlns:dc="http://purl.org/dc/elements/1.1/"
   xmlns:cc="http://creativecommons.org/ns#"
   xmlns:rdf="http://www.w3.org/1999/02/22-rdf-syntax-ns#"
   xmlns:svg="http://www.w3.org/2000/svg"
   xmlns="http://www.w3.org/2000/svg"
   xmlns:sodipodi="http://sodipodi.sourceforge.net/DTD/sodipodi-0.dtd"
   xmlns:inkscape="http://www.inkscape.org/namespaces/inkscape"
   width="16"
   height="16"
   id="svg2"
   version="1.1"
   inkscape:version="0.48.4 r9939"
   sodipodi:docname="menu.svg">
  <defs
     id="defs4" />
  <sodipodi:namedview
     id="base"
     pagecolor="#ffffff"
     bordercolor="#666666"
     borderopacity="1.0"
     inkscape:pageopacity="0.0"
     inkscape:pageshadow="2"
     inkscape:zoom="26.070765"
     inkscape:cx="6.9616792"
     inkscape:cy="6.7245648"
     inkscape:document-units="px"
     inkscape:current-layer="layer1"
     showgrid="false"
     inkscape:window-width="784"
     inkscape:window-height="821"
     inkscape:window-x="0"
     inkscape:window-y="0"
     inkscape:window-maximized="0" />
  <metadata
     id="metadata7">
    <rdf:RDF>
      <cc:Work
         rdf:about="">
        <dc:format>image/svg+xml</dc:format>
        <dc:type
           rdf:resource="http://purl.org/dc/dcmitype/StillImage" />
        <dc:title></dc:title>
      </cc:Work>
    </rdf:RDF>
  </metadata>
  <g
     inkscape:label="Layer 1"
     inkscape:groupmode="layer"
     id="layer1"
     transform="translate(0,-1036.3622)">
    <path
       style="fill:none;stroke:#000000;stroke-width:1.09290302px;stroke-linecap:butt;stroke-linejoin:miter;stroke-opacity:1"
       d="m 2.7314515,1037.1425 0,12.1431 10.3550525,-3.3027 0,-6.1273 z"
       id="path3129"
       inkscape:connector-curvature="0"
       sodipodi:nodetypes="ccccc" />
    <path
       style="fill:none;stroke:#000000;stroke-width:1px;stroke-linecap:butt;stroke-linejoin:miter;stroke-opacity:1"
       d="m 8.3234996,1047.9128 0,4.5261"
       id="path3131"
       inkscape:connector-curvature="0" />
    <path
       style="fill:#00ff00;fill-opacity:1;stroke:#00ff00;stroke-width:0.04104853;stroke-opacity:1"
       d="m 12.574007,1043.6986 0,-0.4309 -0.410486,0 -0.410485,0 0,-0.5132 0,-0.5131 0.410485,0 0.410486,0 0,-0.4515 0,-0.4515 0.513107,0 0.513106,0 0,0.4515 0,0.4515 0.472058,0 0.472058,0 0,0.5131 0,0.5132 -0.472058,0 -0.472058,0 0,0.4309 0,0.4311 -0.513106,0 -0.513107,0 0,-0.4311 z"
       id="path3153"
       inkscape:connector-curvature="0" />
    <path
       style="fill:#00ff00;fill-opacity:1;stroke:#00ff00;stroke-width:0.04211429;stroke-opacity:1"
       d="m 2.194939,1038.8274 0,-0.4307 -0.4322381,0 -0.4322371,0 0,-0.513 0,-0.5129 0.4322371,0 0.4322381,0 0,-0.4514 0,-0.4513 0.5402971,0 0.5402961,0 0,0.4513 0,0.4514 0.4970729,0 0.4970728,0 0,0.5129 0,0.513 -0.4970728,0 -0.4970729,0 0,0.4307 0,0.431 -0.5402961,0 -0.5402971,0 0,-0.431 z"
       id="path3153-1"
       inkscape:connector-curvature="0" />
    <path
       style="fill:#008000;fill-opacity:1;stroke:#008000;stroke-width:0.04211429;stroke-opacity:1"
       d="m 2.1949395,1042.2795 0,-0.4307 -0.4322381,0 -0.4322371,0 0,-0.513 0,-0.5129 0.4322371,0 0.4322381,0 0,-0.4514 0,-0.4513 0.5402971,0 0.5402961,0 0,0.4513 0,0.4514 0.4970729,0 0.4970728,0 0,0.5129 0,0.513 -0.4970728,0 -0.4970729,0 0,0.4307 0,0.431 -0.5402961,0 -0.5402971,0 0,-0.431 z"
       id="path3153-1-1"
       inkscape:connector-curvature="0" />
    <path
       style="fill:#00ff00;fill-opacity:1;stroke:#00ff00;stroke-width:0.04211429;stroke-opacity:1"
       d="m 2.1565824,1046.0385 0,-0.4307 -0.4322381,0 -0.4322371,0 0,-0.513 0,-0.5129 0.4322371,0 0.4322381,0 0,-0.4514 0,-0.4513 0.5402971,0 0.5402961,0 0,0.4513 0,0.4514 0.4970729,0 0.4970728,0 0,0.5129 0,0.513 -0.4970728,0 -0.4970729,0 0,0.4307 0,0.431 -0.5402961,0 -0.5402971,0 0,-0.431 z"
       id="path3153-1-5"
       inkscape:connector-curvature="0" />
    <path
       style="fill:#008000;fill-opacity:1;stroke:#008000;stroke-width:0.04211429;stroke-opacity:1"
       d="m 2.1949395,1049.6057 0,-0.4307 -0.4322381,0 -0.4322371,0 0,-0.513 0,-0.5129 0.4322371,0 0.4322381,0 0,-0.4514 0,-0.4513 0.5402971,0 0.5402961,0 0,0.4513 0,0.4514 0.4970729,0 0.4970728,0 0,0.5129 0,0.513 -0.4970728,0 -0.4970729,0 0,0.4307 0,0.431 -0.5402961,0 -0.5402971,0 0,-0.431 z"
       id="path3153-1-1-2"
       inkscape:connector-curvature="0" />
  </g>
</svg>
