<?xml version="1.0" encoding="UTF-8" standalone="no"?>
<!-- Created with Inkscape (http://www.inkscape.org/) -->

<svg
   xmlns:dc="http://purl.org/dc/elements/1.1/"
   xmlns:cc="http://creativecommons.org/ns#"
   xmlns:rdf="http://www.w3.org/1999/02/22-rdf-syntax-ns#"
   xmlns:svg="http://www.w3.org/2000/svg"
   xmlns="http://www.w3.org/2000/svg"
   xmlns:sodipodi="http://sodipodi.sourceforge.net/DTD/sodipodi-0.dtd"
   xmlns:inkscape="http://www.inkscape.org/namespaces/inkscape"
   width="16"
   height="16"
   id="svg2"
   version="1.1"
   inkscape:version="0.48.4 r9939"
   sodipodi:docname="nandGate.svg">
  <defs
     id="defs4" />
  <sodipodi:namedview
     id="base"
     pagecolor="#ffffff"
     bordercolor="#666666"
     borderopacity="1.0"
     inkscape:pageopacity="0.0"
     inkscape:pageshadow="2"
     inkscape:zoom="17.05802"
     inkscape:cx="6.9612547"
     inkscape:cy="6.1189508"
     inkscape:document-units="px"
     inkscape:current-layer="layer1"
     showgrid="false"
     inkscape:window-width="1600"
     inkscape:window-height="837"
     inkscape:window-x="-8"
     inkscape:window-y="-8"
     inkscape:window-maximized="1" />
  <metadata
     id="metadata7">
    <rdf:RDF>
      <cc:Work
         rdf:about="">
        <dc:format>image/svg+xml</dc:format>
        <dc:type
           rdf:resource="http://purl.org/dc/dcmitype/StillImage" />
        <dc:title />
      </cc:Work>
    </rdf:RDF>
  </metadata>
  <g
     inkscape:label="Layer 1"
     inkscape:groupmode="layer"
     id="layer1"
     transform="translate(0,-1036.3622)">
    <path
       style="fill:none;stroke:#000000;stroke-width:1px;stroke-linecap:butt;stroke-linejoin:miter;stroke-opacity:1"
       d="m 7.1908762,13.924363 c -2.2342113,0.324609 -6.76894765,0.234494 -6.76894765,0.234494 l 0,-12.6194992 c 0,0 4.79453525,-0.2577072 7.11633745,0.2344938 0.6477117,0.137309 1.2928014,0.3744518 1.8410229,0.7457165 0.6510691,0.4409145 1.2048751,1.0425311 1.6338531,1.7015256 0.369341,0.5673806 0.617282,1.2197891 0.770262,1.8792821 0.155729,0.6713419 0.182967,1.3751685 0.138179,2.0628788 -0.05515,0.8467496 -0.190404,1.7056394 -0.498134,2.4964164 -0.215379,0.553466 -0.532739,1.076591 -0.924085,1.523313 -0.456863,0.52151 -1.0014061,0.992134 -1.6209304,1.303399 -0.5192966,0.260908 -1.1124402,0.354421 -1.6875574,0.43798 z"
       id="path3235"
       inkscape:connector-curvature="0"
       transform="translate(0,1036.3622)"
       sodipodi:nodetypes="accaaaaaaaaa" />
    <path
       sodipodi:type="arc"
       style="fill:#999999;fill-opacity:1;stroke:#000000;stroke-opacity:1"
       id="path3237"
       sodipodi:cx="13.942821"
       sodipodi:cy="8.0217142"
       sodipodi:rx="1.5918213"
       sodipodi:ry="1.5726428"
       d="m 15.534642,8.0217142 a 1.5918213,1.5726428 0 1 1 -3.183643,0 1.5918213,1.5726428 0 1 1 3.183643,0 z"
       transform="translate(0,1036.1277)" />
  </g>
</svg>
