<?xml version="1.0" encoding="UTF-8"?>
<svg xmlns="http://www.w3.org/2000/svg" xmlns:xlink="http://www.w3.org/1999/xlink" width="13pt" height="13pt" viewBox="0 0 13 13" version="1.1">
<g id="surface1">
<path style="fill:none;stroke-width:1;stroke-linecap:butt;stroke-linejoin:miter;stroke:rgb(0%,0%,0%);stroke-opacity:1;stroke-miterlimit:4;" d="M 33.007812 20 C 42.998798 20 42.998798 20 42.998798 20 " transform="matrix(0.26,0,0,0.325,0,0)"/>
<path style="fill:none;stroke-width:1;stroke-linecap:butt;stroke-linejoin:miter;stroke:rgb(0%,0%,0%);stroke-opacity:1;stroke-miterlimit:4;" d="M 17.503005 12.5 L 7.496995 12.5 " transform="matrix(0.26,0,0,0.325,0,0)"/>
<path style="fill:none;stroke-width:1;stroke-linecap:butt;stroke-linejoin:miter;stroke:rgb(0%,0%,0%);stroke-opacity:1;stroke-miterlimit:4;" d="M 17.503005 5 L 17.503005 35 C 17.503005 35 32.496995 35 32.496995 20 C 32.496995 5 17.277644 4.723558 17.503005 5 Z M 17.503005 5 " transform="matrix(0.26,0,0,0.325,0,0)"/>
<path style="fill:none;stroke-width:1;stroke-linecap:butt;stroke-linejoin:miter;stroke:rgb(0%,0%,0%);stroke-opacity:1;stroke-miterlimit:4;" d="M 17.503005 27.5 L 7.496995 27.5 " transform="matrix(0.26,0,0,0.325,0,0)"/>
</g>
</svg>
