<?xml version="1.0" encoding="UTF-8" standalone="no"?>
<svg
   xmlns:dc="http://purl.org/dc/elements/1.1/"
   xmlns:cc="http://creativecommons.org/ns#"
   xmlns:rdf="http://www.w3.org/1999/02/22-rdf-syntax-ns#"
   xmlns:svg="http://www.w3.org/2000/svg"
   xmlns="http://www.w3.org/2000/svg"
   xmlns:xlink="http://www.w3.org/1999/xlink"
   xmlns:sodipodi="http://sodipodi.sourceforge.net/DTD/sodipodi-0.dtd"
   xmlns:inkscape="http://www.inkscape.org/namespaces/inkscape"
   width="13pt"
   height="13pt"
   viewBox="0 0 13 13"
   version="1.1"
   id="svg2"
   inkscape:version="0.91 r13725"
   sodipodi:docname="protosimComponentChipNand.svg">
  <metadata
     id="metadata17">
    <rdf:RDF>
      <cc:Work
         rdf:about="">
        <dc:format>image/svg+xml</dc:format>
        <dc:type
           rdf:resource="http://purl.org/dc/dcmitype/StillImage" />
      </cc:Work>
    </rdf:RDF>
  </metadata>
  <defs
     id="defs15">
    <inkscape:path-effect
       effect="spiro"
       id="path-effect3365"
       is_visible="true" />
    <inkscape:path-effect
       effect="spiro"
       id="path-effect3359"
       is_visible="true" />
  </defs>
  <sodipodi:namedview
     pagecolor="#ffffff"
     bordercolor="#666666"
     borderopacity="1"
     objecttolerance="10"
     gridtolerance="10"
     guidetolerance="10"
     inkscape:pageopacity="0"
     inkscape:pageshadow="2"
     inkscape:window-width="1280"
     inkscape:window-height="687"
     id="namedview13"
     showgrid="false"
     inkscape:snap-global="false"
     inkscape:zoom="8.5904635"
     inkscape:cx="10.763968"
     inkscape:cy="8.1937849"
     inkscape:window-x="0"
     inkscape:window-y="1"
     inkscape:window-maximized="1"
     inkscape:current-layer="svg2" />
  <g
     id="surface1">
    <path
       style="fill:none;stroke-width:1;stroke-linecap:butt;stroke-linejoin:miter;stroke:rgb(0%,0%,0%);stroke-opacity:1;stroke-miterlimit:4;"
       d="M 33.007812 20 C 42.998798 20 42.998798 20 42.998798 20 "
       transform="matrix(0.26,0,0,0.325,0,0)"
       id="path5" />
    <path
       style="fill:none;stroke-width:1;stroke-linecap:butt;stroke-linejoin:miter;stroke:rgb(0%,0%,0%);stroke-opacity:1;stroke-miterlimit:4;"
       d="M 17.503005 12.5 L 7.496995 12.5 "
       transform="matrix(0.26,0,0,0.325,0,0)"
       id="path7" />
    <path
       style="fill:none;stroke-width:1;stroke-linecap:butt;stroke-linejoin:miter;stroke:rgb(0%,0%,0%);stroke-opacity:1;stroke-miterlimit:4;"
       d="M 17.503005 5 L 17.503005 35 C 17.503005 35 32.496995 35 32.496995 20 C 32.496995 5 17.277644 4.723558 17.503005 5 Z M 17.503005 5 "
       transform="matrix(0.26,0,0,0.325,0,0)"
       id="path9" />
    <path
       style="fill:none;stroke-width:1;stroke-linecap:butt;stroke-linejoin:miter;stroke:rgb(0%,0%,0%);stroke-opacity:1;stroke-miterlimit:4;"
       d="M 17.503005 27.5 L 7.496995 27.5 "
       transform="matrix(0.26,0,0,0.325,0,0)"
       id="path11" />
  </g>
  <ellipse
     style="opacity:0;fill:#000000;fill-opacity:1;stroke:#000000;stroke-width:0.80000001"
     id="path3345"
     cx="-8.8686438"
     cy="8.400423"
     rx="2.4788136"
     ry="2.9470339" />
  <path
     style="opacity:0;fill:#000000;fill-opacity:1;stroke:#000000;stroke-width:1"
     d="M 8.1386719 0.40820312 A 10.697796 7.9690135 0 0 0 -2.5605469 8.3769531 A 10.697796 7.9690135 0 0 0 8.1386719 16.345703 A 10.697796 7.9690135 0 0 0 18.835938 8.3769531 A 10.697796 7.9690135 0 0 0 8.1386719 0.40820312 z M 11.125 7.8828125 C 11.134765 7.8828125 11.144531 7.8927744 11.144531 7.9121094 L 11.144531 8.4785156 L 11.144531 8.5957031 C 11.144531 8.5996131 11.148431 8.6067779 11.144531 8.6074219 C 11.122351 8.6111319 11.12922 8.6009803 11.125 8.5976562 C 11.12078 8.6009803 11.127649 8.6111299 11.105469 8.6074219 C 11.101569 8.6067778 11.105469 8.5996121 11.105469 8.5957031 L 11.105469 8.4785156 L 11.105469 7.9121094 C 11.105469 7.8927744 11.115235 7.8828125 11.125 7.8828125 z M 10.867188 7.8867188 C 10.87695 7.8867188 10.886719 7.8966806 10.886719 7.9160156 L 10.886719 8.25 L 10.886719 8.3964844 C 10.888519 8.4235874 10.882778 8.4523856 10.892578 8.4785156 L 10.894531 8.4804688 L 10.894531 8.4824219 C 10.880924 8.4604939 10.891593 8.5373664 10.867188 8.5097656 C 10.864586 8.5068656 10.863928 8.5048531 10.861328 8.5019531 C 10.859228 8.4974231 10.855116 8.4929973 10.853516 8.4882812 C 10.843376 8.4585894 10.848656 8.4271714 10.847656 8.3964844 L 10.847656 8.25 L 10.847656 7.9160156 C 10.847656 7.8966806 10.857422 7.8867186 10.867188 7.8867188 z M 10.070312 8.4492188 C 10.080077 8.4492188 10.089844 8.4591806 10.089844 8.4785156 L 10.089844 8.6171875 L 10.089844 8.6523438 C 10.089844 8.6910137 10.050781 8.6910137 10.050781 8.6523438 L 10.050781 8.6171875 L 10.050781 8.4785156 C 10.050781 8.4591806 10.060548 8.4492188 10.070312 8.4492188 z "
     transform="scale(0.8,0.8)"
     id="path3347" />
  <ellipse
     style="opacity:0;fill:#000000;fill-opacity:1;stroke:#000000;stroke-width:0.80000001"
     id="path3349"
     cx="1.4788097"
     cy="19.708746"
     rx="3.7871957"
     ry="1.7312895" />
  <ellipse
     style="opacity:0;fill:#000000;fill-opacity:1;stroke:#000000;stroke-width:0.80000001"
     id="path3351"
     cx="-0.75743914"
     cy="19.456266"
     rx="3.9314697"
     ry="1.9116322" />
  <ellipse
     style="opacity:0;fill:#000000;fill-opacity:1;stroke:#000000;stroke-width:0.80000001"
     id="path3353"
     cx="-2.8854823"
     cy="12.783589"
     rx="3.2461677"
     ry="4.6889086" />
  <ellipse
     style="opacity:0;fill:#000080;fill-opacity:1;stroke:#6f8a91;stroke-width:0.80000001"
     id="path3355"
     cx="-0.57709646"
     cy="2.7565374"
     rx="3.2461677"
     ry="3.1740308" />
  <ellipse
     style="opacity:0;fill:#000080;fill-opacity:1;stroke:#6f8a91;stroke-width:0.80000001"
     id="path3361"
     cx="-4.6889086"
     cy="11.593328"
     rx="2.524797"
     ry="2.3444543" />
  <rect
     style="opacity:0;fill:#000080;fill-opacity:1;stroke:#6f8a91;stroke-width:0.80000001"
     id="rect3371"
     width="5.9152389"
     height="5.1938682"
     x="21.136158"
     y="1.7466186" />
  <ellipse
     style="opacity:0;fill:#000080;fill-opacity:1;stroke:#6f8a91;stroke-width:0.80000001"
     id="path3378"
     cx="19.549145"
     cy="8.2389545"
     rx="8.8007221"
     ry="7.5743914" />
  <ellipse
     style="opacity:0;fill:#00222b;fill-opacity:1;stroke:#6f8a91;stroke-width:0.80000001"
     id="path3388"
     cx="-7.5022545"
     cy="8.2028856"
     rx="6.3480616"
     ry="5.3742113" />
  <ellipse
     style="opacity:0;fill:#00222b;fill-opacity:1;stroke:#6f8a91;stroke-width:0.80000001"
     id="path3390"
     cx="-9.0892696"
     cy="8.8521185"
     rx="5.6988277"
     ry="4.8692517" />
  <use
     id="use3392"
     xlink:href="#path3390"
     x="0"
     y="0"
     width="100%"
     height="100%"
     transform="translate(0.50381482,0.80143353)" />
  <use
     id="use3394"
     xlink:href="#path3390"
     x="0"
     y="0"
     width="100%"
     height="100%"
     transform="translate(-4.1903341,-0.45073473)" />
  <use
     id="use3396"
     xlink:href="#path3390"
     x="0"
     y="0"
     width="100%"
     height="100%"
     transform="translate(-1.1179339,1.3613342)" />
  <use
     id="use3398"
     xlink:href="#path3390"
     x="0"
     y="0"
     width="100%"
     height="100%"
     transform="translate(1.5830834,-3.7533101)" />
  <use
     id="use3400"
     xlink:href="#path3390"
     x="0"
     y="0"
     width="100%"
     height="100%"
     transform="translate(4.7406507,4.2820271)" />
  <use
     id="use3402"
     xlink:href="#path3390"
     x="0"
     y="0"
     width="100%"
     height="100%"
     transform="translate(7.561069,0.66465497)" />
  <use
     id="use3404"
     xlink:href="#path3390"
     x="0"
     y="0"
     width="100%"
     height="100%"
     transform="translate(4.7057349,0.42217269)" />
  <use
     id="use3406"
     xlink:href="#path3390"
     x="0"
     y="0"
     width="100%"
     height="100%"
     transform="translate(10.795385,0.53564428)" />
  <use
     id="use3408"
     xlink:href="#path3390"
     x="0"
     y="0"
     width="100%"
     height="100%"
     transform="translate(5.1521573,0.82588513)" />
  <use
     id="use3410"
     xlink:href="#path3390"
     x="0"
     y="0"
     width="100%"
     height="100%"
     transform="translate(9.3880638,1.8472622)" />
  <use
     id="use3412"
     xlink:href="#path3390"
     x="0"
     y="0"
     width="100%"
     height="100%"
     transform="translate(13.55747,6.3785295)" />
  <use
     id="use3414"
     xlink:href="#path3390"
     x="0"
     y="0"
     width="100%"
     height="100%"
     transform="translate(13.818234,0.06687024)" />
  <use
     id="use3416"
     xlink:href="#path3390"
     x="0"
     y="0"
     width="100%"
     height="100%"
     transform="translate(22.050429,4.0124668)" />
  <use
     id="use3418"
     xlink:href="#path3390"
     x="0"
     y="0"
     width="100%"
     height="100%"
     transform="translate(25.807988,5.9051309)" />
  <use
     id="use3420"
     xlink:href="#path3390"
     x="0"
     y="0"
     width="100%"
     height="100%"
     transform="translate(24.153813,5.8324465)" />
  <use
     id="use3422"
     xlink:href="#path3390"
     x="0"
     y="0"
     width="100%"
     height="100%"
     transform="translate(24.876408,5.6520165)" />
  <use
     id="use3424"
     xlink:href="#path3390"
     x="0"
     y="0"
     width="100%"
     height="100%"
     transform="translate(21.405526,5.5868548)" />
  <use
     id="use3426"
     xlink:href="#path3390"
     x="0"
     y="0"
     width="100%"
     height="100%"
     transform="translate(25.141022,3.6709757)" />
  <use
     id="use3428"
     xlink:href="#path3390"
     x="0"
     y="0"
     width="100%"
     height="100%"
     transform="translate(-2.6590051,-0.39121639)" />
  <use
     id="use3430"
     xlink:href="#path3390"
     x="0"
     y="0"
     width="100%"
     height="100%"
     transform="translate(-4.0747717,0.41466911)" />
  <path
     style="opacity:0;fill:#00222b;fill-opacity:1;stroke:#6f8a91;stroke-width:0.80000001"
     id="path3444"
     d="m -20.114462,13.187446 c 0.648292,0.527166 1.341218,0.996884 2.064859,1.41448 0.264451,0.152608 0.535359,0.293745 0.803039,0.440618 1.260374,0.673551 2.586827,1.20812 3.910685,1.740882 0,0 -0.789459,0.526461 -0.789459,0.526461 l 0,0 c -1.294867,-0.580557 -2.605598,-1.128309 -3.867576,-1.779471 -0.579196,-0.305618 -0.994084,-0.516136 -1.554688,-0.843195 -0.436905,-0.254892 -0.853904,-0.539563 -1.27946,-0.812087 -0.05998,-0.03842 -0.121876,-0.07376 -0.182813,-0.110646 0,0 0.895413,-0.577042 0.895413,-0.577042 z"
     inkscape:connector-curvature="0" />
  <path
     style="opacity:0;fill:#00222b;fill-opacity:1;stroke:#6f8a91;stroke-width:0.80000001"
     id="path3446"
     d="m -17.027876,11.92171 c 1.085132,0.549996 2.201942,1.032228 3.326808,1.494076 0.929078,0.360449 1.837826,0.769328 2.74243,1.186472 0,0 -0.800434,0.528446 -0.800434,0.528446 l 0,0 c -0.880366,-0.441048 -1.77044,-0.86367 -2.692085,-1.212958 -0.683936,-0.274535 -0.904735,-0.360088 -1.576981,-0.641794 -0.622381,-0.260811 -1.239226,-0.541316 -1.881794,-0.750162 0,0 0.882056,-0.60408 0.882056,-0.60408 z"
     inkscape:connector-curvature="0" />
  <path
     style="opacity:0;fill:#00222b;fill-opacity:1;stroke:#6f8a91;stroke-width:0.80000001"
     id="path3448"
     d="m -15.030325,10.437339 c 0.718536,0.765978 1.573099,1.376282 2.42018,1.988588 0.825689,0.59302 1.676452,1.147681 2.545867,1.673896 0,0 -0.827758,0.532971 -0.827758,0.532971 l 0,0 c -0.845539,-0.55552 -1.685521,-1.119202 -2.512839,-1.701673 -0.186348,-0.131823 -0.888715,-0.626594 -1.080447,-0.770219 -0.495319,-0.371042 -0.961233,-0.778494 -1.440471,-1.169453 0,0 0.895468,-0.55411 0.895468,-0.55411 z"
     inkscape:connector-curvature="0" />
  <path
     style="opacity:0;fill:#00222b;fill-opacity:1;stroke:#6f8a91;stroke-width:0.80000001"
     id="path3450"
     d="m -17.595898,7.1303003 c 1.037988,0.9763613 2.232939,1.7597693 3.407544,2.5582397 1.135518,0.740673 2.307644,1.43719 3.541066,2.004039 0.545283,0.250599 0.7655288,0.322559 1.3089056,0.525606 0.4295824,0.152445 0.8668624,0.28004 1.3063104,0.400085 0,0 -0.8325568,0.568834 -0.8325568,0.568834 l 0,0 c -0.424004,-0.137046 -0.846644,-0.278408 -1.2620752,-0.440094 -0.539807,-0.222852 -0.729429,-0.291499 -1.273098,-0.559712 -1.214152,-0.598986 -2.369806,-1.311263 -3.511528,-2.036079 -0.831207,-0.5489054 -1.668313,-1.0908094 -2.485081,-1.661215 -0.901435,-0.6295349 -0.207587,-0.1611656 -0.909247,-0.6600956 -0.06223,-0.04425 -0.126963,-0.084868 -0.190444,-0.1273018 0,0 0.900204,-0.5723063 0.900204,-0.5723063 z"
     inkscape:connector-curvature="0" />
  <path
     style="opacity:0;fill:#00222b;fill-opacity:1;stroke:#6f8a91;stroke-width:0.80000001"
     id="path3452"
     d="m -9.0627976,3.6007115 c 1.0991266,1.8438292 2.0987498,3.7463525 3.1157718,5.6363981 1.1721984,2.1986324 2.3283172,4.4056404 3.541669,6.5820324 0.092599,0.165847 0.1851978,0.331693 0.2777967,0.49754 0,0 -0.8374421,0.478084 -0.8374421,0.478084 l 0,0 C -3.0462274,16.622597 -3.1274526,16.450428 -3.2086778,16.278259 -4.2954438,14.034548 -5.3998954,11.797602 -6.5994826,9.6116696 -6.856529,9.1459776 -7.1080699,8.677204 -7.3706218,8.2145944 -7.8436147,7.3811922 -8.293432,6.6331925 -8.7988272,5.8247794 -9.1346752,5.2875686 -9.3635848,4.9201108 -9.7295456,4.4321259 -9.8053696,4.3310238 -9.890076,4.236904 -9.9703416,4.139293 c 0,0 0.907544,-0.5385815 0.907544,-0.5385815 z"
     inkscape:connector-curvature="0" />
  <path
     style="opacity:0;fill:#00222b;fill-opacity:1;stroke:#6f8a91;stroke-width:0.80000001"
     id="path3454"
     d="m 2.2887245,15.517993 c 0.049587,-0.02216 0.1001705,-0.04222 0.1487608,-0.06649 0.0729,-0.03641 0.2856517,-0.156883 0.2154865,-0.115445 -0.198852,0.117436 -0.3945504,0.24135 -0.6016649,0.343511 -0.1088266,0.05368 0.2066089,-0.127612 0.3057678,-0.197557 0.2825357,-0.199294 0.3661059,-0.284513 0.6275891,-0.51306 0.4972554,-0.473707 0.9360313,-1.011564 1.2649903,-1.6163 0.06116,-0.112433 0.1131914,-0.229596 0.1697871,-0.344394 0.2873789,-0.612075 0.4926016,-1.256775 0.7068441,-1.896641 0.023726,-0.07162 0.04745,-0.143237 0.071176,-0.214856 0,0 0.9371321,-0.438386 0.9371321,-0.438386 l 0,0 c -0.026901,0.07294 -0.053801,0.145893 -0.080702,0.218841 -0.2290724,0.643229 -0.4354676,1.29609 -0.7220166,1.917121 -0.056731,0.117677 -0.1089427,0.237641 -0.1701933,0.35303 -0.3253884,0.612993 -0.7594905,1.160157 -1.2535475,1.645412 -0.235759,0.213124 -0.3579911,0.334425 -0.6125023,0.522554 -0.5704407,0.421659 -1.2089805,0.746405 -1.8394419,1.068605 0,0 0.8325346,-0.665949 0.8325346,-0.665949 z"
     inkscape:connector-curvature="0" />
  <path
     style="opacity:0;fill:#00222b;fill-opacity:1;stroke:#6f8a91;stroke-width:0.80000001"
     id="path3456"
     d="m 6.4725243,10.59316 c 0.3147179,0.01154 0.6297265,0.01101 0.9446073,0.0108 0,0 -0.8370198,0.60813 -0.8370198,0.60813 l 0,0 c -0.3247952,-2.13e-4 -0.6496911,-3.32e-4 -0.9743381,0.0108 0,0 0.8667506,-0.629731 0.8667506,-0.629731 z"
     inkscape:connector-curvature="0" />
  <path
     style="opacity:0;fill:#00222b;fill-opacity:1;stroke:#6f8a91;stroke-width:0.80000001"
     id="path3462"
     d="m -7.7487113,9.9501968 c -0.042038,0.8446012 -0.042292,1.6908212 -0.04495,2.5362832 -0.00125,0.892725 0.00472,1.785419 0.025063,2.677918 0,0 -0.9100523,0.463694 -0.9100523,0.463694 l 0,0 c 0.020072,-0.901017 0.026384,-1.80222 0.025064,-2.703458 -0.00264,-0.83018 -0.00216,-1.661204 -0.044952,-2.490476 0,0 0.9498271,-0.4839612 0.9498271,-0.4839612 z"
     inkscape:connector-curvature="0" />
  <path
     style="opacity:0;fill:#00222b;fill-opacity:1;stroke:#6f8a91;stroke-width:0.80000001"
     id="path3466"
     d="m 0.26696106,20.157938 c 0.21606008,-0.319877 0.39127365,-0.664492 0.5574539,-1.012136 0.0762456,-0.169533 0.0860477,-0.18763 0.1546428,-0.353748 0.0200392,-0.04853 0.00809,-0.132019 0.0586464,-0.146188 0.5764672,-0.161552 1.1606219,-0.342084 1.7589268,-0.36318 0.4306374,-0.01518 0.8443734,0.172503 1.2670134,0.256494 0.4563377,0.09069 0.9132694,0.17836 1.3699042,0.267541 1.6961294,0.322426 3.3957944,0.63618 5.1117794,0.83315 0.259101,0.0297 0.519299,0.04522 0.779705,0.05647 0,0 -0.848513,0.60762 -0.848513,0.60762 l 0,0 C 10.228521,20.280271 9.981368,20.249931 9.7351152,20.211731 8.0757656,19.9428 6.4337217,19.579273 4.7836446,19.260453 4.3225686,19.174773 3.8627041,19.082291 3.4004166,19.003406 2.9579171,18.927906 2.4603774,19.018226 2.069591,18.797329 1.896535,18.699509 2.051047,18.395514 1.990181,18.206272 c -0.01657,-0.05152 -0.041295,0.10005 -0.062498,0.149841 -0.067433,0.158346 -0.086802,0.199195 -0.1592224,0.360329 -0.1623839,0.343063 -0.33255,0.682507 -0.5234637,1.010761 0,0 -0.97803588,0.43073 -0.97803588,0.43073 z"
     inkscape:connector-curvature="0" />
  <path
     style="opacity:0;fill:#00222b;fill-opacity:1;stroke:#6f8a91;stroke-width:0.80000001"
     id="path3468"
     d="m -6.5906505,17.204942 c 0.1295795,-0.229724 0.2845162,-0.439644 0.4030051,-0.67588 0.1952087,-0.411821 0.3787078,-0.831646 0.6387758,-1.208466 0.09598,-0.139068 0.2022251,-0.270764 0.3033376,-0.406146 0.6284335,-0.696835 0.23459,-0.309644 1.0581314,-0.983552 0.15659,-0.128139 0.2693356,-0.343716 0.4667487,-0.388079 0.5518181,-0.124002 1.1423425,-0.222459 1.6939359,-0.09746 0.1998853,0.0453 2.08191078,1.49416 2.17812339,1.566784 1.35342821,1.05847 2.67435121,2.157364 4.01859291,3.22733 0,0 -0.80506,0.502565 -0.80506,0.502565 l 0,0 C 2.1020784,17.604146 0.82686632,16.477441 -0.51745446,15.435741 -0.89696296,15.159787 -1.265387,14.867907 -1.65598,14.607879 c -0.3585081,-0.238667 -0.8314843,-0.335537 -1.1066842,-0.66683 -0.1614059,-0.194306 0.1414093,-0.621854 -0.073743,-0.754202 -0.1819088,-0.111898 -0.3323832,0.268274 -0.4989896,0.401894 -0.7702073,0.617715 -0.4277161,0.285081 -1.0103875,0.937245 -0.094683,0.129427 -0.1943053,0.25538 -0.2840475,0.388279 -0.2480438,0.367329 -0.4263454,0.775613 -0.6027761,1.180218 -0.0576,0.129276 -0.1113324,0.261292 -0.1950704,0.376647 -0.026427,0.03641 -0.060174,0.06723 -0.085526,0.104395 -0.015708,0.02302 -0.085439,0.159537 -0.1018531,0.191297 0,0 -0.9755934,0.43812 -0.9755934,0.43812 z"
     inkscape:connector-curvature="0" />
  <path
     inkscape:connector-curvature="0"
     d="m 9.6587215,6.3328125 c 0,0.088867 0,0.1777344 0,0.2666016 0,0.039136 0,0.078271 0,0.1174072 0.049453,0.021682 -0.1262999,0.044878 0.1427795,0.065782 0.023362,0.00181 0.065905,0.00337 0.096083,0.00506 -0.016847,-9.76e-4 -0.032889,-0.00194 -0.049453,-0.00292 -0.4780258,-0.027622 0.00242,0.046831 -0.7009712,0.023654 l 0,0 C 9.075805,6.8060773 9.0071262,6.8037473 8.9357399,6.8014273 8.8781083,6.7978073 8.80944,6.7943273 8.765507,6.7905583 8.4870932,6.7668043 8.6144929,6.7413753 8.5870396,6.7168253 c 0,-0.039136 0,-0.078271 0,-0.1174072 0,-0.088867 0,-0.1777344 0,-0.2666016 0,-0.030936 1.0724629,-0.030936 1.0724629,0 z"
     id="path4494"
     style="fill:#ffffff;fill-opacity:1;fill-rule:nonzero;stroke:none;stroke-width:1px;stroke-linecap:butt;stroke-linejoin:miter;stroke-opacity:1" />
  <ellipse
     style="opacity:1;fill:#ffffff;fill-opacity:1;stroke:#000000;stroke-width:0.1648;stroke-miterlimit:0;stroke-dasharray:none;stroke-opacity:1"
     id="path4182"
     cx="9.4547415"
     cy="6.4974022"
     rx="0.91358817"
     ry="0.9207536" />
</svg>
