<?xml version="1.0" encoding="UTF-8" standalone="no"?>
<svg
   xmlns:dc="http://purl.org/dc/elements/1.1/"
   xmlns:cc="http://creativecommons.org/ns#"
   xmlns:rdf="http://www.w3.org/1999/02/22-rdf-syntax-ns#"
   xmlns:svg="http://www.w3.org/2000/svg"
   xmlns="http://www.w3.org/2000/svg"
   xmlns:xlink="http://www.w3.org/1999/xlink"
   xmlns:sodipodi="http://sodipodi.sourceforge.net/DTD/sodipodi-0.dtd"
   xmlns:inkscape="http://www.inkscape.org/namespaces/inkscape"
   width="13pt"
   height="13pt"
   viewBox="0 0 13 13"
   version="1.1"
   id="svg2"
   inkscape:version="0.91 r13725"
   sodipodi:docname="protosimComponentChipOr.svg">
  <metadata
     id="metadata17">
    <rdf:RDF>
      <cc:Work
         rdf:about="">
        <dc:format>image/svg+xml</dc:format>
        <dc:type
           rdf:resource="http://purl.org/dc/dcmitype/StillImage" />
      </cc:Work>
    </rdf:RDF>
  </metadata>
  <defs
     id="defs15">
    <inkscape:path-effect
       effect="spiro"
       id="path-effect4288"
       is_visible="true" />
    <inkscape:path-effect
       effect="spiro"
       id="path-effect4284"
       is_visible="true" />
    <inkscape:path-effect
       effect="spiro"
       id="path-effect4276"
       is_visible="true" />
    <inkscape:path-effect
       effect="spiro"
       id="path-effect4272"
       is_visible="true" />
    <inkscape:path-effect
       effect="spiro"
       id="path-effect4268"
       is_visible="true" />
    <inkscape:path-effect
       effect="spiro"
       id="path-effect4244"
       is_visible="true" />
    <inkscape:path-effect
       effect="spiro"
       id="path-effect4228"
       is_visible="true" />
    <inkscape:path-effect
       effect="spiro"
       id="path-effect4220"
       is_visible="true" />
    <inkscape:path-effect
       effect="spiro"
       id="path-effect4216"
       is_visible="true" />
    <inkscape:path-effect
       effect="spiro"
       id="path-effect4208"
       is_visible="true" />
    <inkscape:path-effect
       effect="spiro"
       id="path-effect3365"
       is_visible="true" />
    <inkscape:path-effect
       effect="spiro"
       id="path-effect3359"
       is_visible="true" />
  </defs>
  <sodipodi:namedview
     pagecolor="#ffffff"
     bordercolor="#666666"
     borderopacity="1"
     objecttolerance="10"
     gridtolerance="10"
     guidetolerance="10"
     inkscape:pageopacity="0"
     inkscape:pageshadow="2"
     inkscape:window-width="1280"
     inkscape:window-height="687"
     id="namedview13"
     showgrid="false"
     inkscape:snap-global="false"
     inkscape:zoom="17.139816"
     inkscape:cx="3.7281717"
     inkscape:cy="4.6765453"
     inkscape:window-x="0"
     inkscape:window-y="1"
     inkscape:window-maximized="1"
     inkscape:current-layer="svg2" />
  <g
     id="surface1">
    <path
       style="fill:none;stroke-width:1;stroke-linecap:butt;stroke-linejoin:miter;stroke:rgb(0%,0%,0%);stroke-opacity:1;stroke-miterlimit:4;"
       d="M 33.007812 20 C 42.998798 20 42.998798 20 42.998798 20 "
       transform="matrix(0.26,0,0,0.325,0,0)"
       id="path5" />
    <path
       style="fill:none;stroke-width:1;stroke-linecap:butt;stroke-linejoin:miter;stroke:rgb(0%,0%,0%);stroke-opacity:1;stroke-miterlimit:4;"
       d="M 17.503005 12.5 L 7.496995 12.5 "
       transform="matrix(0.26,0,0,0.325,0,0)"
       id="path7" />
    <path
       style="fill:none;stroke-width:1;stroke-linecap:butt;stroke-linejoin:miter;stroke:rgb(0%,0%,0%);stroke-opacity:1;stroke-miterlimit:4;"
       d="M 17.503005 5 L 17.503005 35 C 17.503005 35 32.496995 35 32.496995 20 C 32.496995 5 17.277644 4.723558 17.503005 5 Z M 17.503005 5 "
       transform="matrix(0.26,0,0,0.325,0,0)"
       id="path9" />
    <path
       style="fill:none;stroke-width:1;stroke-linecap:butt;stroke-linejoin:miter;stroke:rgb(0%,0%,0%);stroke-opacity:1;stroke-miterlimit:4;"
       d="M 17.503005 27.5 L 7.496995 27.5 "
       transform="matrix(0.26,0,0,0.325,0,0)"
       id="path11" />
  </g>
  <ellipse
     style="opacity:0;fill:#000000;fill-opacity:1;stroke:#000000;stroke-width:0.80000001"
     id="path3345"
     cx="-8.8686438"
     cy="8.400423"
     rx="2.4788136"
     ry="2.9470339" />
  <path
     style="opacity:0;fill:#000000;fill-opacity:1;stroke:#000000;stroke-width:1"
     d="M 8.1386719 0.40820312 A 10.697796 7.9690135 0 0 0 -2.5605469 8.3769531 A 10.697796 7.9690135 0 0 0 8.1386719 16.345703 A 10.697796 7.9690135 0 0 0 18.835938 8.3769531 A 10.697796 7.9690135 0 0 0 8.1386719 0.40820312 z M 5.328125 2.2597656 C 5.3496547 2.2538049 5.3810446 2.2585198 5.4179688 2.2773438 C 5.5278196 2.3333457 5.5272732 2.3219436 5.6210938 2.4179688 C 5.6517247 2.4493197 5.6761151 2.4866333 5.7050781 2.5195312 C 5.7272361 2.5447013 5.7505315 2.5673059 5.7734375 2.5917969 C 5.8185325 2.6400129 5.8278361 2.6607036 5.8144531 2.6347656 L 5.6953125 2.6738281 C 5.5376111 2.7249561 6.0066842 2.6631345 5.8535156 2.7265625 L 5.7285156 2.7792969 C 5.7170306 2.7710469 5.7056805 2.7635262 5.6953125 2.7539062 C 5.6797435 2.7394592 5.6668197 2.7225733 5.6523438 2.7070312 C 5.6267537 2.6795603 5.5989008 2.653289 5.5742188 2.625 C 5.5128405 2.5546569 5.4717813 2.4859789 5.3847656 2.4414062 C 5.2741024 2.3847206 5.2635359 2.2776478 5.328125 2.2597656 z M 11.125 7.8828125 C 11.134765 7.8828125 11.144531 7.8927744 11.144531 7.9121094 L 11.144531 8.4785156 L 11.144531 8.5957031 C 11.144531 8.5996131 11.148431 8.6067779 11.144531 8.6074219 C 11.122351 8.6111319 11.12922 8.6009804 11.125 8.5976562 C 11.12078 8.6009804 11.127649 8.6111299 11.105469 8.6074219 C 11.101569 8.6067778 11.105469 8.5996121 11.105469 8.5957031 L 11.105469 8.4785156 L 11.105469 7.9121094 C 11.105469 7.8927744 11.115235 7.8828125 11.125 7.8828125 z M 10.867188 7.8867188 C 10.87695 7.8867188 10.886719 7.8966806 10.886719 7.9160156 L 10.886719 8.25 L 10.886719 8.3964844 C 10.888519 8.4235874 10.882778 8.4523856 10.892578 8.4785156 L 10.894531 8.4804688 L 10.894531 8.4824219 C 10.880924 8.4604939 10.891593 8.5373664 10.867188 8.5097656 C 10.864585 8.5068656 10.863928 8.5048531 10.861328 8.5019531 C 10.859228 8.4974231 10.855116 8.4929973 10.853516 8.4882812 C 10.843376 8.4585894 10.848656 8.4271714 10.847656 8.3964844 L 10.847656 8.25 L 10.847656 7.9160156 C 10.847656 7.8966806 10.857422 7.8867186 10.867188 7.8867188 z M 10.070312 8.4492188 C 10.080077 8.4492188 10.089844 8.4591806 10.089844 8.4785156 L 10.089844 8.6171875 L 10.089844 8.6523438 C 10.089844 8.6910136 10.050781 8.6910136 10.050781 8.6523438 L 10.050781 8.6171875 L 10.050781 8.4785156 C 10.050781 8.4591806 10.060549 8.4492187 10.070312 8.4492188 z "
     transform="scale(0.8,0.8)"
     id="path3347" />
  <ellipse
     style="opacity:0;fill:#000000;fill-opacity:1;stroke:#000000;stroke-width:0.80000001"
     id="path3349"
     cx="1.4788097"
     cy="19.708746"
     rx="3.7871957"
     ry="1.7312895" />
  <ellipse
     style="opacity:0;fill:#000000;fill-opacity:1;stroke:#000000;stroke-width:0.80000001"
     id="path3351"
     cx="-0.75743914"
     cy="19.456266"
     rx="3.9314697"
     ry="1.9116322" />
  <ellipse
     style="opacity:0;fill:#000000;fill-opacity:1;stroke:#000000;stroke-width:0.80000001"
     id="path3353"
     cx="-2.8854823"
     cy="12.783589"
     rx="3.2461677"
     ry="4.6889086" />
  <ellipse
     style="opacity:0;fill:#000080;fill-opacity:1;stroke:#6f8a91;stroke-width:0.80000001"
     id="path3355"
     cx="-0.57709646"
     cy="2.7565374"
     rx="3.2461677"
     ry="3.1740308" />
  <ellipse
     style="opacity:0;fill:#000080;fill-opacity:1;stroke:#6f8a91;stroke-width:0.80000001"
     id="path3361"
     cx="-4.6889086"
     cy="11.593328"
     rx="2.524797"
     ry="2.3444543" />
  <rect
     style="opacity:0;fill:#000080;fill-opacity:1;stroke:#6f8a91;stroke-width:0.80000001"
     id="rect3371"
     width="5.9152389"
     height="5.1938682"
     x="21.136158"
     y="1.7466186" />
  <ellipse
     style="opacity:0;fill:#000080;fill-opacity:1;stroke:#6f8a91;stroke-width:0.80000001"
     id="path3378"
     cx="19.549145"
     cy="8.2389545"
     rx="8.8007221"
     ry="7.5743914" />
  <ellipse
     style="opacity:0;fill:#00222b;fill-opacity:1;stroke:#6f8a91;stroke-width:0.80000001"
     id="path3388"
     cx="-7.5022545"
     cy="8.2028856"
     rx="6.3480616"
     ry="5.3742113" />
  <ellipse
     style="opacity:0;fill:#00222b;fill-opacity:1;stroke:#6f8a91;stroke-width:0.80000001"
     id="path3390"
     cx="-9.0892696"
     cy="8.8521185"
     rx="5.6988277"
     ry="4.8692517" />
  <use
     id="use3392"
     xlink:href="#path3390"
     x="0"
     y="0"
     width="100%"
     height="100%"
     transform="translate(0.50381482,0.80143353)" />
  <use
     id="use3394"
     xlink:href="#path3390"
     x="0"
     y="0"
     width="100%"
     height="100%"
     transform="translate(-4.1903341,-0.45073473)" />
  <use
     id="use3396"
     xlink:href="#path3390"
     x="0"
     y="0"
     width="100%"
     height="100%"
     transform="translate(-1.1179339,1.3613342)" />
  <use
     id="use3398"
     xlink:href="#path3390"
     x="0"
     y="0"
     width="100%"
     height="100%"
     transform="translate(1.5830834,-3.7533101)" />
  <use
     id="use3400"
     xlink:href="#path3390"
     x="0"
     y="0"
     width="100%"
     height="100%"
     transform="translate(4.7406507,4.2820271)" />
  <use
     id="use3402"
     xlink:href="#path3390"
     x="0"
     y="0"
     width="100%"
     height="100%"
     transform="translate(7.561069,0.66465497)" />
  <use
     id="use3404"
     xlink:href="#path3390"
     x="0"
     y="0"
     width="100%"
     height="100%"
     transform="translate(4.7057349,0.42217269)" />
  <use
     id="use3406"
     xlink:href="#path3390"
     x="0"
     y="0"
     width="100%"
     height="100%"
     transform="translate(10.795385,0.53564428)" />
  <use
     id="use3408"
     xlink:href="#path3390"
     x="0"
     y="0"
     width="100%"
     height="100%"
     transform="translate(5.1521573,0.82588513)" />
  <use
     id="use3410"
     xlink:href="#path3390"
     x="0"
     y="0"
     width="100%"
     height="100%"
     transform="translate(9.3880638,1.8472622)" />
  <use
     id="use3412"
     xlink:href="#path3390"
     x="0"
     y="0"
     width="100%"
     height="100%"
     transform="translate(13.55747,6.3785295)" />
  <use
     id="use3414"
     xlink:href="#path3390"
     x="0"
     y="0"
     width="100%"
     height="100%"
     transform="translate(13.818234,0.06687024)" />
  <use
     id="use3416"
     xlink:href="#path3390"
     x="0"
     y="0"
     width="100%"
     height="100%"
     transform="translate(22.050429,4.0124668)" />
  <use
     id="use3418"
     xlink:href="#path3390"
     x="0"
     y="0"
     width="100%"
     height="100%"
     transform="translate(25.807988,5.9051309)" />
  <use
     id="use3420"
     xlink:href="#path3390"
     x="0"
     y="0"
     width="100%"
     height="100%"
     transform="translate(24.153813,5.8324465)" />
  <use
     id="use3422"
     xlink:href="#path3390"
     x="0"
     y="0"
     width="100%"
     height="100%"
     transform="translate(24.876408,5.6520165)" />
  <use
     id="use3424"
     xlink:href="#path3390"
     x="0"
     y="0"
     width="100%"
     height="100%"
     transform="translate(21.405526,5.5868548)" />
  <use
     id="use3426"
     xlink:href="#path3390"
     x="0"
     y="0"
     width="100%"
     height="100%"
     transform="translate(25.141022,3.6709757)" />
  <use
     id="use3428"
     xlink:href="#path3390"
     x="0"
     y="0"
     width="100%"
     height="100%"
     transform="translate(-2.6590051,-0.39121639)" />
  <use
     id="use3430"
     xlink:href="#path3390"
     x="0"
     y="0"
     width="100%"
     height="100%"
     transform="translate(-4.0747717,0.41466911)" />
  <path
     style="opacity:0;fill:#00222b;fill-opacity:1;stroke:#6f8a91;stroke-width:0.80000001"
     id="path3444"
     d="m -20.114462,13.187446 c 0.648292,0.527166 1.341218,0.996884 2.064859,1.41448 0.264451,0.152608 0.535359,0.293745 0.803039,0.440618 1.260374,0.673551 2.586827,1.20812 3.910685,1.740882 0,0 -0.789459,0.526461 -0.789459,0.526461 l 0,0 c -1.294867,-0.580557 -2.605598,-1.128309 -3.867576,-1.779471 -0.579196,-0.305618 -0.994084,-0.516136 -1.554688,-0.843195 -0.436905,-0.254892 -0.853904,-0.539563 -1.27946,-0.812087 -0.05998,-0.03842 -0.121876,-0.07376 -0.182813,-0.110646 0,0 0.895413,-0.577042 0.895413,-0.577042 z"
     inkscape:connector-curvature="0" />
  <path
     style="opacity:0;fill:#00222b;fill-opacity:1;stroke:#6f8a91;stroke-width:0.80000001"
     id="path3446"
     d="m -17.027876,11.92171 c 1.085132,0.549996 2.201942,1.032228 3.326808,1.494076 0.929078,0.360449 1.837826,0.769328 2.74243,1.186472 0,0 -0.800434,0.528446 -0.800434,0.528446 l 0,0 c -0.880366,-0.441048 -1.77044,-0.86367 -2.692085,-1.212958 -0.683936,-0.274535 -0.904735,-0.360088 -1.576981,-0.641794 -0.622381,-0.260811 -1.239226,-0.541316 -1.881794,-0.750162 0,0 0.882056,-0.60408 0.882056,-0.60408 z"
     inkscape:connector-curvature="0" />
  <path
     style="opacity:0;fill:#00222b;fill-opacity:1;stroke:#6f8a91;stroke-width:0.80000001"
     id="path3448"
     d="m -15.030325,10.437339 c 0.718536,0.765978 1.573099,1.376282 2.42018,1.988588 0.825689,0.59302 1.676452,1.147681 2.545867,1.673896 0,0 -0.827758,0.532971 -0.827758,0.532971 l 0,0 c -0.845539,-0.55552 -1.685521,-1.119202 -2.512839,-1.701673 -0.186348,-0.131823 -0.888715,-0.626594 -1.080447,-0.770219 -0.495319,-0.371042 -0.961233,-0.778494 -1.440471,-1.169453 0,0 0.895468,-0.55411 0.895468,-0.55411 z"
     inkscape:connector-curvature="0" />
  <path
     style="opacity:0;fill:#00222b;fill-opacity:1;stroke:#6f8a91;stroke-width:0.80000001"
     id="path3450"
     d="m -17.595898,7.1303003 c 1.037988,0.9763613 2.232939,1.7597693 3.407544,2.5582397 1.135518,0.740673 2.307644,1.43719 3.541066,2.004039 0.545283,0.250599 0.7655288,0.322559 1.3089056,0.525606 0.4295824,0.152445 0.8668624,0.28004 1.3063104,0.400085 0,0 -0.8325568,0.568834 -0.8325568,0.568834 l 0,0 c -0.424004,-0.137046 -0.846644,-0.278408 -1.2620752,-0.440094 -0.539807,-0.222852 -0.729429,-0.291499 -1.273098,-0.559712 -1.214152,-0.598986 -2.369806,-1.311263 -3.511528,-2.036079 -0.831207,-0.5489054 -1.668313,-1.0908094 -2.485081,-1.661215 -0.901435,-0.6295349 -0.207587,-0.1611656 -0.909247,-0.6600956 -0.06223,-0.04425 -0.126963,-0.084868 -0.190444,-0.1273018 0,0 0.900204,-0.5723063 0.900204,-0.5723063 z"
     inkscape:connector-curvature="0" />
  <path
     style="opacity:0;fill:#00222b;fill-opacity:1;stroke:#6f8a91;stroke-width:0.80000001"
     id="path3452"
     d="m -9.0627976,3.6007115 c 1.0991266,1.8438292 2.0987498,3.7463525 3.1157718,5.6363981 1.1721984,2.1986324 2.3283172,4.4056404 3.541669,6.5820324 0.092599,0.165847 0.1851978,0.331693 0.2777967,0.49754 0,0 -0.8374421,0.478084 -0.8374421,0.478084 l 0,0 C -3.0462274,16.622597 -3.1274526,16.450428 -3.2086778,16.278259 -4.2954438,14.034548 -5.3998954,11.797602 -6.5994826,9.6116696 -6.856529,9.1459776 -7.1080699,8.677204 -7.3706218,8.2145944 -7.8436147,7.3811922 -8.293432,6.6331925 -8.7988272,5.8247794 -9.1346752,5.2875686 -9.3635848,4.9201108 -9.7295456,4.4321259 -9.8053696,4.3310238 -9.890076,4.236904 -9.9703416,4.139293 c 0,0 0.907544,-0.5385815 0.907544,-0.5385815 z"
     inkscape:connector-curvature="0" />
  <path
     style="opacity:0;fill:#00222b;fill-opacity:1;stroke:#6f8a91;stroke-width:0.80000001"
     id="path3454"
     d="m 2.2887245,15.517993 c 0.049587,-0.02216 0.1001705,-0.04222 0.1487608,-0.06649 0.0729,-0.03641 0.2856517,-0.156883 0.2154865,-0.115445 -0.198852,0.117436 -0.3945504,0.24135 -0.6016649,0.343511 -0.1088266,0.05368 0.2066089,-0.127612 0.3057678,-0.197557 0.2825357,-0.199294 0.3661059,-0.284513 0.6275891,-0.51306 0.4972554,-0.473707 0.9360313,-1.011564 1.2649903,-1.6163 0.06116,-0.112433 0.1131914,-0.229596 0.1697871,-0.344394 0.2873789,-0.612075 0.4926016,-1.256775 0.7068441,-1.896641 0.023726,-0.07162 0.04745,-0.143237 0.071176,-0.214856 0,0 0.9371321,-0.438386 0.9371321,-0.438386 l 0,0 c -0.026901,0.07294 -0.053801,0.145893 -0.080702,0.218841 -0.2290724,0.643229 -0.4354676,1.29609 -0.7220166,1.917121 -0.056731,0.117677 -0.1089427,0.237641 -0.1701933,0.35303 -0.3253884,0.612993 -0.7594905,1.160157 -1.2535475,1.645412 -0.235759,0.213124 -0.3579911,0.334425 -0.6125023,0.522554 -0.5704407,0.421659 -1.2089805,0.746405 -1.8394419,1.068605 0,0 0.8325346,-0.665949 0.8325346,-0.665949 z"
     inkscape:connector-curvature="0" />
  <path
     style="opacity:0;fill:#00222b;fill-opacity:1;stroke:#6f8a91;stroke-width:0.80000001"
     id="path3456"
     d="m 6.4725243,10.59316 c 0.3147179,0.01154 0.6297265,0.01101 0.9446073,0.0108 0,0 -0.8370198,0.60813 -0.8370198,0.60813 l 0,0 c -0.3247952,-2.13e-4 -0.6496911,-3.32e-4 -0.9743381,0.0108 0,0 0.8667506,-0.629731 0.8667506,-0.629731 z"
     inkscape:connector-curvature="0" />
  <path
     style="opacity:0;fill:#00222b;fill-opacity:1;stroke:#6f8a91;stroke-width:0.80000001"
     id="path3462"
     d="m -7.7487113,9.9501968 c -0.042038,0.8446012 -0.042292,1.6908212 -0.04495,2.5362832 -0.00125,0.892725 0.00472,1.785419 0.025063,2.677918 0,0 -0.9100523,0.463694 -0.9100523,0.463694 l 0,0 c 0.020072,-0.901017 0.026384,-1.80222 0.025064,-2.703458 -0.00264,-0.83018 -0.00216,-1.661204 -0.044952,-2.490476 0,0 0.9498271,-0.4839612 0.9498271,-0.4839612 z"
     inkscape:connector-curvature="0" />
  <path
     style="opacity:0;fill:#00222b;fill-opacity:1;stroke:#6f8a91;stroke-width:0.80000001"
     id="path3466"
     d="m 0.26696106,20.157938 c 0.21606008,-0.319877 0.39127365,-0.664492 0.5574539,-1.012136 0.0762456,-0.169533 0.0860477,-0.18763 0.1546428,-0.353748 0.0200392,-0.04853 0.00809,-0.132019 0.0586464,-0.146188 0.5764672,-0.161552 1.1606219,-0.342084 1.7589268,-0.36318 0.4306374,-0.01518 0.8443734,0.172503 1.2670134,0.256494 0.4563377,0.09069 0.9132694,0.17836 1.3699042,0.267541 1.6961294,0.322426 3.3957944,0.63618 5.1117794,0.83315 0.259101,0.0297 0.519299,0.04522 0.779705,0.05647 0,0 -0.848513,0.60762 -0.848513,0.60762 l 0,0 C 10.228521,20.280271 9.981368,20.249931 9.7351152,20.211731 8.0757656,19.9428 6.4337217,19.579273 4.7836446,19.260453 4.3225686,19.174773 3.8627041,19.082291 3.4004166,19.003406 2.9579171,18.927906 2.4603774,19.018226 2.069591,18.797329 1.896535,18.699509 2.051047,18.395514 1.990181,18.206272 c -0.01657,-0.05152 -0.041295,0.10005 -0.062498,0.149841 -0.067433,0.158346 -0.086802,0.199195 -0.1592224,0.360329 -0.1623839,0.343063 -0.33255,0.682507 -0.5234637,1.010761 0,0 -0.97803588,0.43073 -0.97803588,0.43073 z"
     inkscape:connector-curvature="0" />
  <path
     style="opacity:0;fill:#00222b;fill-opacity:1;stroke:#6f8a91;stroke-width:0.80000001"
     id="path3468"
     d="m -6.5906505,17.204942 c 0.1295795,-0.229724 0.2845162,-0.439644 0.4030051,-0.67588 0.1952087,-0.411821 0.3787078,-0.831646 0.6387758,-1.208466 0.09598,-0.139068 0.2022251,-0.270764 0.3033376,-0.406146 0.6284335,-0.696835 0.23459,-0.309644 1.0581314,-0.983552 0.15659,-0.128139 0.2693356,-0.343716 0.4667487,-0.388079 0.5518181,-0.124002 1.1423425,-0.222459 1.6939359,-0.09746 0.1998853,0.0453 2.08191078,1.49416 2.17812339,1.566784 1.35342821,1.05847 2.67435121,2.157364 4.01859291,3.22733 0,0 -0.80506,0.502565 -0.80506,0.502565 l 0,0 C 2.1020784,17.604146 0.82686632,16.477441 -0.51745446,15.435741 -0.89696296,15.159787 -1.265387,14.867907 -1.65598,14.607879 c -0.3585081,-0.238667 -0.8314843,-0.335537 -1.1066842,-0.66683 -0.1614059,-0.194306 0.1414093,-0.621854 -0.073743,-0.754202 -0.1819088,-0.111898 -0.3323832,0.268274 -0.4989896,0.401894 -0.7702073,0.617715 -0.4277161,0.285081 -1.0103875,0.937245 -0.094683,0.129427 -0.1943053,0.25538 -0.2840475,0.388279 -0.2480438,0.367329 -0.4263454,0.775613 -0.6027761,1.180218 -0.0576,0.129276 -0.1113324,0.261292 -0.1950704,0.376647 -0.026427,0.03641 -0.060174,0.06723 -0.085526,0.104395 -0.015708,0.02302 -0.085439,0.159537 -0.1018531,0.191297 0,0 -0.9755934,0.43812 -0.9755934,0.43812 z"
     inkscape:connector-curvature="0" />
  <path
     style="color:#000000;clip-rule:nonzero;display:inline;overflow:visible;visibility:visible;opacity:1;isolation:auto;mix-blend-mode:normal;color-interpolation:sRGB;color-interpolation-filters:linearRGB;solid-color:#000000;solid-opacity:1;fill:#ffffff;fill-opacity:1;fill-rule:evenodd;stroke:#ffffff;stroke-width:0.80000001px;stroke-linecap:butt;stroke-linejoin:miter;stroke-miterlimit:4;stroke-dasharray:none;stroke-dashoffset:0;stroke-opacity:1;color-rendering:auto;image-rendering:auto;shape-rendering:auto;text-rendering:auto;enable-background:accumulate"
     d="m 4.5342298,2.0933391 0,1.8177768 c 0,0.143046 -0.014907,0.2866466 0,0.4289137 0.00502,0.047883 0.014508,0.095191 0.020425,0.1429712 0.025957,0.2096053 0,0.4219518 0,0.6331582 l 0,0.6740072 c 0,0.1021319 -0.00453,0.2043356 0,0.3063668 0.00686,0.1542706 0.041626,0.3072585 0.1021223,0.4493381 -0.00424,0.070077 0.00999,0.1411878 0.040849,0.2042446 0.00669,0.013675 0.014151,0.026977 0.020425,0.040849 0.020515,0.045363 0.027889,0.095734 0.028679,0.1455144 7.901e-4,0.04978 -0.00466,0.09943 -0.010326,0.1488926 -0.011337,0.098925 -0.018353,0.1983298 -0.018353,0.2979023 l 0,0.6944318 c 0,0.064752 -0.00167,0.1294898 -0.00439,0.194185 -0.00272,0.064695 -0.00562,0.1299061 0.00439,0.1938798 0.010747,0.068677 0.036711,0.1348549 0.040849,0.204244 0.00243,0.040793 -0.00276,0.081775 0,0.1225472 0.0028,0.041343 0.013726,0.081653 0.020424,0.1225464 0.029776,0.181807 -0.024522,0.3688709 0,0.5514608 0.00836,0.062263 0.02581,0.1231234 0.032405,0.1855983 0.00659,0.062475 0.00125,0.128994 -0.032405,0.1820417 -0.019,0.029949 -0.046026,0.054068 -0.065754,0.083542 -0.00986,0.014737 -0.017905,0.030943 -0.021439,0.048321 -0.00353,0.017378 -0.00232,0.036037 0.00549,0.051957 0.0035,0.0071 0.00833,0.01382 0.00978,0.02163 7.257e-4,0.0039 5.375e-4,0.0081 -0.00109,0.01168 -8.147e-4,0.0018 -0.00198,0.0035 -0.00347,0.0048 -0.00148,0.0013 -0.00328,0.0023 -0.00522,0.0027 -0.00337,7.83e-4 -0.00687,-4e-5 -0.01027,-6.47e-4 -0.0017,-3.03e-4 -0.00342,-5.53e-4 -0.00515,-5.19e-4 -0.00173,3.5e-5 -0.00347,3.64e-4 -0.005,0.0012 -0.00162,8.49e-4 -0.00295,0.0022 -0.00387,0.0038 -9.185e-4,0.0016 -0.00143,0.0034 -0.00161,0.0052 -3.578e-4,0.0036 6.04e-4,0.0073 0.00186,0.01073 0.00126,0.0034 0.00283,0.0068 0.00376,0.01031 9.361e-4,0.0035 0.0012,0.0074 -1.433e-4,0.0108 -8.978e-4,0.0023 -0.00247,0.0042 -0.00427,0.0059 -0.00181,0.0017 -0.00385,0.003 -0.00589,0.0044 -0.00204,0.0014 -0.00409,0.0027 -0.00591,0.0043 -0.00182,0.0016 -0.00342,0.0036 -0.00436,0.0058 -0.00132,0.0032 -0.00126,0.0067 -8.779e-4,0.01016 3.783e-4,0.0034 0.00105,0.0068 8.779e-4,0.01026 -1.944e-4,0.0038 -0.00146,0.0076 -0.00321,0.01102 -0.00176,0.0034 -0.00401,0.0066 -0.0063,0.0097 -0.00458,0.0062 -0.00952,0.01257 -0.010912,0.02015 -0.00125,0.0068 5.05e-4,0.01375 0.00169,0.02057 5.94e-4,0.0034 0.00105,0.0069 9.07e-4,0.01032 -1.406e-4,0.0035 -8.984e-4,0.0069 -0.0026,0.01 -0.00239,0.0042 -0.00641,0.0072 -0.010301,0.01013 -0.00389,0.0029 -0.00788,0.006 -0.010124,0.01029 -0.00254,0.0049 -0.00251,0.0107 -0.00128,0.01604 0.00123,0.0053 0.00358,0.01034 0.00556,0.01545 0.00198,0.0051 0.00361,0.0105 0.00331,0.01597 -1.502e-4,0.0027 -7.959e-4,0.0055 -0.00206,0.0079 -0.00126,0.0024 -0.00316,0.0046 -0.00553,0.0059 -0.00302,0.0018 -0.00665,0.0022 -0.010139,0.002 -0.00349,-2.47e-4 -0.00689,-0.0012 -0.010285,-0.002 -0.058376,-0.01394 -0.1228133,2.66e-4 -0.1699217,0.03745 -0.047108,0.03719 -0.075885,0.09656 -0.075885,0.156581 0,0.06002 0.028777,0.119394 0.075885,0.15658 0.047108,0.03719 0.1115456,0.05139 0.1699217,0.03745"
     id="path4206"
     inkscape:original-d="m 4.5342298,2.0933391 c 0,0.6059256 0,1.2118512 0,1.8177768 0,0.1413729 -0.01007,0.2879404 0,0.4289137 0.00343,0.048018 0.016732,0.094972 0.020425,0.1429712 0.016032,0.2084136 0,0.4239256 0,0.6331582 0,0.2246691 0,0.4493381 0,0.6740072 0,0.1021222 -0.00637,0.2044434 0,0.3063668 0.00994,0.1589984 0.05899,0.2983772 0.1021223,0.4493381 0.110086,0.040442 0.024858,0.1402786 0.040849,0.2042446 0.0037,0.014769 0.01561,0.026406 0.020425,0.040849 0.012495,0.037485 0,0.5814963 0,0.5923093 0,0.2314772 0,0.4629544 0,0.6944318 0,0.1293544 -0.012871,0.259352 0,0.3880648 0.00691,0.069088 0.032238,0.1353504 0.040849,0.204244 0.00506,0.040536 -0.00339,0.081839 0,0.1225472 0.00344,0.041272 0.016986,0.081278 0.020424,0.1225464 0.015069,0.180828 0,0.3698152 0,0.5514608 0,0.089513 0.016294,0.2861704 0,0.36764 -0.011985,0.05992 -0.060882,0.1213704 -0.081698,0.18382 -0.0043,0.01292 0.00963,0.03122 0,0.04085 -0.00482,0.0048 -0.01561,-0.0048 -0.020425,0 -0.00963,0.0096 0.00609,0.02867 0,0.04085 -0.0043,0.0086 -0.016118,0.01182 -0.020425,0.02042 -0.00305,0.0061 0.00215,0.01397 0,0.02042 -0.00482,0.01444 -0.01561,0.02641 -0.020425,0.04085 -0.0043,0.01292 0.00609,0.02867 0,0.04085 -0.0043,0.0086 -0.016118,0.01182 -0.020425,0.02042 -0.00817,0.01634 0.00817,0.04494 0,0.06127 -0.00305,0.0061 -0.01561,-0.0048 -0.020424,0 -0.00651,0.0065 0,0.34467 0,0.388065"
     inkscape:connector-curvature="0"
     inkscape:path-effect="#path-effect4208" />
  <path
     style="color:#000000;clip-rule:nonzero;display:inline;overflow:visible;visibility:visible;opacity:1;isolation:auto;mix-blend-mode:normal;color-interpolation:sRGB;color-interpolation-filters:linearRGB;solid-color:#000000;solid-opacity:1;fill:none;fill-opacity:1;fill-rule:evenodd;stroke:#ffffff;stroke-width:0.69263434px;stroke-linecap:butt;stroke-linejoin:miter;stroke-miterlimit:4;stroke-dasharray:none;stroke-dashoffset:0;stroke-opacity:1;color-rendering:auto;image-rendering:auto;shape-rendering:auto;text-rendering:auto;enable-background:accumulate"
     d="m 4.3486129,1.771161 0,0.038009 0,0.1004518 c 0,0.00731 -5.396e-4,0.014604 -0.00141,0.02186 -4.357e-4,0.00363 -8.544e-4,0.00727 -7.932e-4,0.010925 6.11e-5,0.00365 6.305e-4,0.00735 0.0022,0.010653 8.715e-4,0.00183 0.00204,0.00352 0.0027,0.00543 5.933e-4,0.00173 7.401e-4,0.00359 6.531e-4,0.00542 -8.7e-5,0.00183 -4.018e-4,0.00364 -7.112e-4,0.00544 -3.094e-4,0.0018 -6.146e-4,0.00362 -6.82e-4,0.00545 -6.73e-5,0.00183 1.097e-4,0.00369 7.401e-4,0.00541 7.012e-4,0.00191 0.00193,0.00358 0.00304,0.00528 0.00111,0.00171 0.00214,0.00355 0.00235,0.00558 1.888e-4,0.0018 -2.833e-4,0.00364 0,0.00543 3.186e-4,0.00201 0.00155,0.00375 0.0027,0.00543 0.00702,0.010269 0.012395,0.022019 0.013176,0.034434 3.904e-4,0.00621 -3.907e-4,0.012518 -0.00258,0.018342 -0.00218,0.00582 -0.0058,0.011147 -0.010601,0.015097 -9.929e-4,8.163e-4 -0.00206,0.0016 -0.0027,0.00272 -6.892e-4,0.0012 -7.951e-4,0.00266 -6.61e-4,0.00404 1.34e-4,0.00138 4.893e-4,0.00273 6.61e-4,0.00411 4.721e-4,0.00379 -5.097e-4,0.00774 -0.0027,0.01086"
     id="path4214"
     inkscape:path-effect="#path-effect4216"
     inkscape:original-d="m 4.3486129,1.771161 c 0,0.012669 0,0.025339 0,0.038009 0,0.033484 0,0.066968 0,0.1004518 0,0.00756 -0.0019,0.0377 0,0.043439 6.356e-4,0.00192 0.0023,0.00345 0.0027,0.00543 0.00575,0.02896 -0.00959,-0.021719 0,0.021719 8.715e-4,0.00394 0.00412,0.00702 0.00539,0.01086 5.684e-4,0.00172 -4.36e-4,0.00367 0,0.00543 4.874e-4,0.00196 0.00221,0.00347 0.0027,0.00543 8.715e-4,0.00352 0.00104,0.063704 0,0.067873 -3.083e-4,0.00124 -0.00212,0.00157 -0.0027,0.00272 -0.00106,0.00214 7.593e-4,0.00586 0,0.00815 -0.00186,0.00561 -0.0027,0.00551 -0.0027,0.01086"
     inkscape:connector-curvature="0" />
  <path
     style="color:#000000;clip-rule:nonzero;display:inline;overflow:visible;visibility:visible;opacity:1;isolation:auto;mix-blend-mode:normal;color-interpolation:sRGB;color-interpolation-filters:linearRGB;solid-color:#000000;solid-opacity:1;fill:#ffffff;fill-opacity:1;fill-rule:evenodd;stroke:#ffffff;stroke-width:0.80000001px;stroke-linecap:butt;stroke-linejoin:miter;stroke-miterlimit:4;stroke-dasharray:none;stroke-dashoffset:0;stroke-opacity:1;color-rendering:auto;image-rendering:auto;shape-rendering:auto;text-rendering:auto;enable-background:accumulate"
     d="m 4.6375,10.321875 c -0.00962,0.03996 -0.00853,0.08246 0.00313,0.121875 0.00337,0.0114 0.00763,0.02262 0.00938,0.03438 0.002,0.01344 6.762e-4,0.02725 0.00313,0.04062 0.00155,0.0085 0.00459,0.01657 0.00625,0.025 0.00223,0.0113 0.00195,0.02293 0.00313,0.03438 7.55e-4,0.0073 0.00211,0.01458 0.00313,0.02187 0.00421,0.02999 0.00283,0.06048 0,0.09063 -0.00108,0.01146 -0.00235,0.02312 0,0.03438 0.00176,0.0084 0.00552,0.01643 0.00625,0.025 6.214e-4,0.0073 -9.728e-4,0.01464 0,0.02187 5.73e-4,0.0043 0.00202,0.0083 0.00313,0.0125 0.00407,0.01525 0.00356,0.0315 0,0.04687 -0.0012,0.0052 -0.00274,0.01032 -0.00313,0.01562 -3.057e-4,0.0042 1.041e-4,0.0083 0,0.0125 -2.505e-4,0.01003 -0.00356,0.01996 -0.00938,0.02813 -0.00168,0.0051 -0.00273,0.01031 -0.00313,0.01562 -5.816e-4,0.0078 2.589e-4,0.01565 8.242e-4,0.02346 5.652e-4,0.0078 8.472e-4,0.01575 -8.242e-4,0.02341 -7.059e-4,0.0032 -0.00176,0.0064 -0.00313,0.0094"
     id="path4218"
     inkscape:path-effect="#path-effect4220"
     inkscape:original-d="m 4.6375,10.321875 c 0.00256,0.04034 -0.00487,0.08191 0.00313,0.121875 0.00233,0.01165 0.00742,0.02266 0.00938,0.03438 0.00223,0.0134 0.00121,0.02718 0.00313,0.04062 0.00122,0.0085 0.00491,0.01651 0.00625,0.025 0.00179,0.01136 0.00186,0.02294 0.00313,0.03438 8.16e-4,0.0074 0.00263,0.01453 0.00313,0.02187 0.00199,0.02985 0,0.06071 0,0.09063 0,0.01146 -0.00142,0.02301 0,0.03438 0.00106,0.0085 0.00503,0.0165 0.00625,0.025 0.00103,0.0072 -8.08e-4,0.01463 0,0.02187 4.743e-4,0.0042 0.00259,0.0082 0.00313,0.0125 0.00137,0.01096 0.00143,0.03543 0,0.04687 -6.588e-4,0.0053 -0.00254,0.01034 -0.00313,0.01562 -4.601e-4,0.0042 5.893e-4,0.0084 0,0.0125 -0.00138,0.0096 -0.00778,0.01853 -0.00938,0.02813 0,0.02384 0.0014,-0.0025 -0.00313,0.01562 -0.0023,0.0092 0.00344,0.04 0,0.04687 -0.00285,0.0057 -0.00313,0.0021 -0.00313,0.0094"
     inkscape:connector-curvature="0" />
  <path
     style="color:#000000;clip-rule:nonzero;display:inline;overflow:visible;visibility:visible;opacity:1;isolation:auto;mix-blend-mode:normal;color-interpolation:sRGB;color-interpolation-filters:linearRGB;solid-color:#000000;solid-opacity:1;fill:none;fill-opacity:1;fill-rule:evenodd;stroke:#ffffff;stroke-width:0.80000001px;stroke-linecap:butt;stroke-linejoin:miter;stroke-miterlimit:4;stroke-dasharray:none;stroke-dashoffset:0;stroke-opacity:1;color-rendering:auto;image-rendering:auto;shape-rendering:auto;text-rendering:auto;enable-background:accumulate"
     d="m 4.778125,10.359375 0.1125,0 c 0.00636,0 0.012705,-6.47e-4 0.018983,-0.0017 0.00314,-5.19e-4 0.0063,-0.001 0.00948,-9.4e-4 0.00318,7.8e-5 0.00643,7.88e-4 0.00903,0.0026 0.00181,0.0013 0.00322,0.0031 0.00462,0.0048 0.00141,0.0017 0.00287,0.0035 0.00476,0.0046 0.00198,0.0012 0.00432,0.0018 0.00625,0.0031 0.00253,0.0017 0.00413,0.0047 0.00413,0.0078 0,0.0031 -0.0016,0.0061 -0.00413,0.0078 -0.043854,0.01704 -0.094464,0.0159 -0.137505,-0.0031 -0.00606,-0.0027 -0.012147,-0.0057 -0.01875,-0.0062 -0.00313,-2.22e-4 -0.00626,1.51e-4 -0.00939,3.93e-4 -0.00313,2.41e-4 -0.00631,3.47e-4 -0.00936,-3.93e-4 -0.0032,-7.77e-4 -0.00614,-0.0025 -0.00937,-0.0031 -0.0047,-9.27e-4 -0.00949,4.31e-4 -0.014193,0.0013 -0.00235,4.53e-4 -0.00474,7.95e-4 -0.00713,6.79e-4 -0.00239,-1.17e-4 -0.0048,-7.13e-4 -0.0068,-0.002 -0.00124,-8.03e-4 -0.00231,-0.0019 -0.00312,-0.0031"
     id="path4226"
     inkscape:path-effect="#path-effect4228"
     inkscape:original-d="m 4.778125,10.359375 c 0.0375,0 0.075,0 0.1125,0 0.00539,0 0.034205,-0.0017 0.0375,0 0.00395,0.002 0.00584,0.0067 0.00938,0.0094 0.00186,0.0014 0.0046,0.0014 0.00625,0.0031 0.00178,0.0018 0,0.01325 0,0.01562 -0.044453,-0.0032 -0.094035,0.0062 -0.137505,-0.0031 -0.00644,-0.0014 -0.012252,-0.0052 -0.01875,-0.0062 -0.00616,-10e-4 -0.012538,6.9e-4 -0.01875,0 -0.00327,-3.64e-4 -0.00613,-0.0026 -0.00937,-0.0031 -0.00497,-8.28e-4 -0.02364,0.0022 -0.028125,0 -0.00132,-6.59e-4 -0.00208,-0.0021 -0.00312,-0.0031"
     inkscape:connector-curvature="0" />
  <ellipse
     style="opacity:1;fill:#ffffff;fill-opacity:1;stroke:#ffffff;stroke-width:0.1648;stroke-miterlimit:0;stroke-dasharray:none;stroke-opacity:1"
     id="path4230"
     cx="4.5453124"
     cy="10.3"
     rx="0.14218751"
     ry="0.09375" />
  <ellipse
     style="opacity:1;fill:#ffffff;fill-opacity:1;stroke:#ffffff;stroke-width:0.1648;stroke-miterlimit:0;stroke-dasharray:none;stroke-opacity:1"
     id="path4232"
     cx="4.4781251"
     cy="10.990625"
     rx="0.203125"
     ry="0.1375" />
  <path
     style="color:#000000;clip-rule:nonzero;display:inline;overflow:visible;visibility:visible;opacity:1;isolation:auto;mix-blend-mode:normal;color-interpolation:sRGB;color-interpolation-filters:linearRGB;solid-color:#000000;solid-opacity:1;fill:none;fill-opacity:1;fill-rule:evenodd;stroke:#000000;stroke-width:0;stroke-linecap:butt;stroke-linejoin:miter;stroke-miterlimit:4;stroke-dasharray:none;stroke-dashoffset:0;stroke-opacity:1;color-rendering:auto;image-rendering:auto;shape-rendering:auto;text-rendering:auto;enable-background:accumulate"
     d="m 4.584375,11.025 c -3.948e-4,0.01377 0.00173,0.02761 0.00625,0.04062 7.635e-4,0.0022 0.00162,0.0044 0.00313,0.0062 0.00122,0.0014 0.00281,0.0025 0.00445,0.0034 0.00164,9.33e-4 0.00335,0.0017 0.00493,0.0028 0.00541,0.0035 0.00906,0.009 0.012109,0.0147 0.00304,0.0057 0.00569,0.0116 0.00977,0.01655 0.00198,0.0024 0.00428,0.0045 0.00615,0.007 0.00187,0.0025 0.00332,0.0055 0.00324,0.0086 -5.67e-5,0.0022 -8.42e-4,0.0042 -0.00122,0.0064 -1.868e-4,0.0011 -2.703e-4,0.0022 -1.062e-4,0.0032 1.642e-4,0.0011 5.888e-4,0.0021 0.00132,0.0029 7.949e-4,8.62e-4 0.00189,0.0014 0.00299,0.0018 0.0011,4.08e-4 0.00224,7.35e-4 0.00326,0.0013 0.00134,7.65e-4 0.00242,0.0019 0.00324,0.0032 8.239e-4,0.0013 0.00141,0.0027 0.00195,0.0042 0.00107,0.0029 0.00202,0.006 0.00419,0.0082 0.00165,0.0017 0.00385,0.0026 0.00605,0.0035 0.0022,8.13e-4 0.00446,0.0015 0.00645,0.0027 0.0033,0.002 0.00564,0.0056 0.00625,0.0094"
     id="path4242"
     inkscape:path-effect="#path-effect4244"
     inkscape:original-d="m 4.584375,11.025 c -5.824e-4,0.01917 -0.00187,0.02438 0.00625,0.04062 0.00104,0.0021 0.00148,0.0046 0.00313,0.0062 0.00266,0.0026 0.00672,0.0036 0.00938,0.0062 0.00858,0.0086 0.015143,0.02115 0.021875,0.03125 0.00134,0.002 0.00841,0.01178 0.00938,0.01562 0.00101,0.0041 -0.00231,0.009 0,0.0125 0.0013,0.0019 0.0046,0.0014 0.00625,0.0031 0.00381,0.0038 0.00557,0.01182 0.00938,0.01562 0.0033,0.0033 0.00921,0.003 0.0125,0.0062 0.00322,0.0032 0.00303,0.0062 0.00625,0.0094"
     inkscape:connector-curvature="0" />
  <ellipse
     style="opacity:1;fill:#ffffff;fill-opacity:1;stroke:#ffffff;stroke-width:0.08;stroke-miterlimit:4;stroke-dasharray:none;stroke-opacity:1"
     id="path4246"
     cx="4.65625"
     cy="10.790625"
     rx="0.13124999"
     ry="0.071874999" />
  <ellipse
     style="opacity:1;fill:#ffffff;fill-opacity:1;stroke:#ffffff;stroke-width:0.08;stroke-miterlimit:4;stroke-dasharray:none;stroke-opacity:1"
     id="path4251"
     cx="4.7249999"
     cy="10.993751"
     rx="0.1"
     ry="0.068750001" />
  <ellipse
     style="opacity:1;fill:#ffffff;fill-opacity:1;stroke:#ffffff;stroke-width:0.08;stroke-miterlimit:4;stroke-dasharray:none;stroke-opacity:1"
     id="path4256"
     cx="4.6171875"
     cy="11.03125"
     rx="0.17343751"
     ry="0.13124999" />
  <ellipse
     style="opacity:1;fill:#ffffff;fill-opacity:1;stroke:#ffffff;stroke-width:0.08;stroke-miterlimit:4;stroke-dasharray:none;stroke-opacity:1"
     id="path4258"
     cx="4.1859374"
     cy="10.814062"
     rx="0.1515625"
     ry="0.051562499" />
  <ellipse
     style="opacity:1;fill:#ffffff;fill-opacity:1;stroke:#ffffff;stroke-width:0.08;stroke-miterlimit:4;stroke-dasharray:none;stroke-opacity:1"
     id="path4260"
     cx="4.5609374"
     cy="11.107814"
     rx="0.1078125"
     ry="0.057812501" />
  <path
     style="opacity:1;fill:#ffffff;fill-opacity:1;stroke:#000000;stroke-width:0.27399999;stroke-miterlimit:4;stroke-dasharray:none;stroke-opacity:1"
     d="M 5.5605469 2.0683594 L 5.5605469 2.375 C 5.5772421 2.3892997 5.5929007 2.3891132 5.6210938 2.4179688 C 5.6517247 2.4493197 5.6761151 2.4866333 5.7050781 2.5195312 C 5.7272361 2.5447013 5.7505315 2.5673059 5.7734375 2.5917969 C 5.8185325 2.6400129 5.8278361 2.6607036 5.8144531 2.6347656 L 5.6953125 2.6738281 C 5.5376111 2.7249561 6.0066842 2.6631345 5.8535156 2.7265625 L 5.7285156 2.7792969 C 5.7170306 2.7710469 5.7056805 2.7635262 5.6953125 2.7539062 C 5.6797435 2.7394592 5.6668197 2.7225733 5.6523438 2.7070312 C 5.6267537 2.6795603 5.5989008 2.653289 5.5742188 2.625 C 5.5693946 2.6194713 5.5632082 2.616835 5.5585938 2.6113281 L 5.546875 8.0742188 L 5.5273438 14.082031 A 1.8653858 6.0066199 0 0 0 7.1542969 11.126953 A 1.8653858 6.0066199 0 0 0 7.1699219 5.1132812 A 1.8653858 6.0066199 0 0 0 5.5605469 2.0683594 z "
     transform="scale(0.8,0.8)"
     id="path4264" />
  <path
     style="color:#000000;clip-rule:nonzero;display:inline;overflow:visible;visibility:visible;opacity:1;isolation:auto;mix-blend-mode:normal;color-interpolation:sRGB;color-interpolation-filters:linearRGB;solid-color:#000000;solid-opacity:1;fill:#ffffff;fill-opacity:1;fill-rule:evenodd;stroke:#ffffff;stroke-width:0.80000001px;stroke-linecap:butt;stroke-linejoin:miter;stroke-miterlimit:4;stroke-dasharray:none;stroke-dashoffset:0;stroke-opacity:1;color-rendering:auto;image-rendering:auto;shape-rendering:auto;text-rendering:auto;enable-background:accumulate"
     d="m 4.4589256,2.1680734 c 0.020528,0.077984 0.020528,0.1612754 0,0.2392594 -0.00762,0.028939 -0.018032,0.057311 -0.021751,0.087003 -0.00541,0.043197 0,0.086971 0,0.1305052 l 0,0.4132663 c 0,0.036352 0.00145,0.072684 0.00381,0.1089594 0.00236,0.036275 0.00484,0.073242 -0.00381,0.1085491 -0.00546,0.022278 -0.015356,0.043225 -0.021751,0.065253 -0.013206,0.045486 -0.011073,0.093913 -0.00662,0.1410671 0.00446,0.047154 0.011125,0.094545 0.00662,0.1416941 -0.00285,0.029869 -0.010213,0.059304 -0.021751,0.087003 0.00376,0.036122 0.00376,0.072633 0,0.1087542 -0.013111,0.1261171 -0.071273,0.2439473 -0.087003,0.3697646 -0.015302,0.1223935 0,0.2464183 0,0.3697646 l 0,0.6525257 0,0.5220206 c 0,0.039993 -0.00164,0.079963 -0.00431,0.1198676 -0.00266,0.039904 -0.00546,0.08061 0.00431,0.1193917 0.0056,0.022241 0.015343,0.04323 0.021751,0.065253 0.01224,0.042068 0.012006,0.086617 0.011474,0.1304264 -5.323e-4,0.043809 -0.00119,0.088298 0.010277,0.1305839 0.012022,0.044349 0.037067,0.085008 0.043502,0.1305051 0.0061,0.043145 -0.00508,0.087227 0,0.1305052 0.00349,0.029722 0.014508,0.057966 0.021751,0.087003 0.017678,0.07087 0.012592,0.1455604 0,0.2175086 -0.00572,0.032709 -0.012986,0.065262 -0.015174,0.098395 -0.00219,0.033134 9.63e-4,0.067351 0.015174,0.097363 0.00695,0.014668 0.016443,0.028165 0.021751,0.043502 0.00834,0.024108 0.00599,0.050443 0.0037,0.075852 -0.00229,0.025408 -0.0037,0.050893 -0.0037,0.076404 l 0,0.456768"
     id="path4266"
     inkscape:path-effect="#path-effect4268"
     inkscape:original-d="m 4.4589256,2.1680734 c -0.01219,0.078009 0.011165,0.1611036 0,0.2392594 -0.00422,0.029594 -0.017523,0.05741 -0.021751,0.087003 -0.00615,0.043065 0,0.087004 0,0.1305052 0,0.1377554 0,0.2755108 0,0.4132663 0,0.069046 0.0097,0.1496208 0,0.2175085 -0.00324,0.022697 -0.017982,0.042637 -0.021751,0.065253 -0.015114,0.090689 0.00911,0.1916148 0,0.2827612 -0.00298,0.029746 -0.014501,0.058002 -0.021751,0.087003 0,0.036251 0.00328,0.072652 0,0.1087542 -0.011673,0.1284029 -0.071169,0.2430892 -0.087003,0.3697646 -0.014865,0.1189161 0,0.2499583 0,0.3697646 0,0.2175086 0,0.4350172 0,0.6525257 0,0.1740068 0,0.3480137 0,0.5220206 0,0.075561 -0.012441,0.1646152 0,0.2392593 0.00377,0.022615 0.018509,0.042556 0.021751,0.065253 0.044373,0.31061 -0.093034,-0.27465 0.021751,0.2610103 0.00961,0.044837 0.035963,0.085274 0.043502,0.1305051 0.00715,0.04291 -0.00433,0.087219 0,0.1305052 0.00298,0.029746 0.016836,0.057517 0.021751,0.087003 0.01128,0.067679 0,0.1486596 0,0.2175086 0,0.059709 -0.014272,0.138669 0,0.1957577 0.00394,0.015728 0.019086,0.02751 0.021751,0.043502 0.00834,0.050062 0,0.101504 0,0.152256 0,0.152256 0,0.304512 0,0.456768"
     inkscape:connector-curvature="0" />
  <path
     style="color:#000000;clip-rule:nonzero;display:inline;overflow:visible;visibility:visible;opacity:1;isolation:auto;mix-blend-mode:normal;color-interpolation:sRGB;color-interpolation-filters:linearRGB;solid-color:#000000;solid-opacity:1;fill:none;fill-opacity:1;fill-rule:evenodd;stroke:#ffffff;stroke-width:0.80000001px;stroke-linecap:butt;stroke-linejoin:miter;stroke-miterlimit:4;stroke-dasharray:none;stroke-dashoffset:0;stroke-opacity:1;color-rendering:auto;image-rendering:auto;shape-rendering:auto;text-rendering:auto;enable-background:accumulate"
     d="m 4.5024274,7.8015453 0,1.5660619 0,0.369764 c 0,0.02551 0.00141,0.050994 0.00368,0.076402 0.00228,0.025408 0.00462,0.051735 -0.00368,0.075854 -0.00529,0.015346 -0.014743,0.028864 -0.021751,0.043504 -0.015257,0.031874 -0.018498,0.068412 -0.015341,0.1036068 0.00316,0.0352 0.012394,0.06952 0.021114,0.103761 0.00872,0.03424 0.017,0.0689 0.018174,0.104221 0.00117,0.03532 -0.00521,0.07172 -0.023948,0.101677 -0.00435,0.0069 -0.00932,0.0135 -0.013477,0.02056 -0.00416,0.0071 -0.00753,0.01478 -0.00827,0.02294 -6.631e-4,0.0073 7.934e-4,0.01459 0.00168,0.02185 8.906e-4,0.0073 0.00117,0.0149 -0.00168,0.02165 -0.00204,0.0048 -0.00557,0.0089 -0.00957,0.01226 -0.004,0.0034 -0.00848,0.0061 -0.012896,0.0089 -0.00442,0.0028 -0.00883,0.0057 -0.012616,0.0093 -0.00379,0.0036 -0.00697,0.008 -0.00842,0.01303 -0.00203,0.007 -5.728e-4,0.01448 0,0.02175 0.00185,0.02348 -0.00618,0.04758 -0.021751,0.06526"
     id="path4270"
     inkscape:path-effect="#path-effect4272"
     inkscape:original-d="m 4.5024274,7.8015453 c 0,0.5220203 0,1.0440411 0,1.5660619 0,0.1232544 0,0.2465096 0,0.369764 0,0.040552 0.012999,0.1132592 0,0.152256 -0.00513,0.015384 -0.017819,0.027776 -0.021751,0.043504 -0.02722,0.1088788 0.02701,0.3052228 0,0.4132658 -0.00394,0.01573 -0.017819,0.02778 -0.021751,0.0435 -0.00352,0.01407 0.00458,0.02974 0,0.0435 -0.00649,0.01946 -0.03433,0.02516 -0.043502,0.0435 -0.00324,0.0065 0.00324,0.01526 0,0.02175 -0.019831,0.03966 -0.021751,0.0146 -0.021751,0.06526"
     inkscape:connector-curvature="0" />
  <path
     style="color:#000000;clip-rule:nonzero;display:inline;overflow:visible;visibility:visible;opacity:1;isolation:auto;mix-blend-mode:normal;color-interpolation:sRGB;color-interpolation-filters:linearRGB;solid-color:#000000;solid-opacity:1;fill:none;fill-opacity:1;fill-rule:evenodd;stroke:#ffffff;stroke-width:0.80000001px;stroke-linecap:butt;stroke-linejoin:miter;stroke-miterlimit:4;stroke-dasharray:none;stroke-dashoffset:0;stroke-opacity:1;color-rendering:auto;image-rendering:auto;shape-rendering:auto;text-rendering:auto;enable-background:accumulate"
     d="m 4.1761645,6.9532618 c -0.00889,0.1452141 -0.00158,0.2914144 0.021751,0.4350172 0.0085,0.052318 0.019381,0.105058 0.043502,0.152256 0.00738,0.014446 0.015989,0.028336 0.021751,0.043502 0.00911,0.023986 0.010728,0.050232 0.00917,0.075843 -0.00156,0.025612 -0.00619,0.050927 -0.00917,0.076413 -0.00563,0.048162 -0.00497,0.098885 0.015955,0.1426293 0.01046,0.021872 0.025989,0.041554 0.045942,0.055328 0.019952,0.013774 0.044433,0.021387 0.068609,0.019552 0.00731,-5.55e-4 0.014538,-0.00195 0.021848,-0.0025 0.00731,-5.563e-4 0.014854,-2.356e-4 0.021654,0.0025 0.00961,0.00387 0.016711,0.012105 0.022924,0.020396 0.00621,0.00829 0.01212,0.017122 0.020578,0.023106 0.00758,0.00536 0.016798,0.00808 0.026044,0.00888 0.00925,7.98e-4 0.01856,-2.413e-4 0.027697,-0.00187 0.018273,-0.00325 0.036549,-0.00888 0.055014,-0.00701 0.016488,0.00167 0.03227,0.00956 0.043502,0.02175"
     id="path4274"
     inkscape:path-effect="#path-effect4276"
     inkscape:original-d="m 4.1761645,6.9532618 c 0.00373,0.1459508 -0.014022,0.2919261 0.021751,0.4350172 0.012802,0.051207 0.02681,0.1021817 0.043502,0.152256 0.00513,0.01538 0.018571,0.027605 0.021751,0.043502 0.00995,0.049766 -0.00834,0.1021944 0,0.152256 7.656e-4,0.00459 0.1228493,0.2149565 0.1305051,0.2175085 0.013757,0.00458 0.029746,-0.00458 0.043502,0 0.019454,0.00649 0.02516,0.03433 0.043502,0.043502 0.029001,0.0145 0.079753,-0.014501 0.1087542,0 0.022062,0.011031 -0.026102,0.02175 0.043502,0.02175"
     inkscape:connector-curvature="0" />
  <path
     style="color:#000000;clip-rule:nonzero;display:inline;overflow:visible;visibility:visible;opacity:1;isolation:auto;mix-blend-mode:normal;color-interpolation:sRGB;color-interpolation-filters:linearRGB;solid-color:#000000;solid-opacity:1;fill:none;fill-opacity:1;fill-rule:evenodd;stroke:#ffffff;stroke-width:0.24;stroke-linecap:butt;stroke-linejoin:miter;stroke-miterlimit:4;stroke-dasharray:none;stroke-dashoffset:0;stroke-opacity:1;color-rendering:auto;image-rendering:auto;shape-rendering:auto;text-rendering:auto;enable-background:accumulate"
     d="m 4.25,10.41875 c 0.00597,0.0044 0.011258,0.0097 0.015625,0.01562 0.00866,0.01182 0.013544,0.02612 0.015625,0.04062 7.561e-4,0.0053 0.00118,0.01067 0.00313,0.01562 0.00198,0.005 0.00543,0.0093 0.0086,0.01369 0.00317,0.0044 0.00617,0.0091 0.00702,0.01444 3.281e-4,0.002 3.281e-4,0.0042 0,0.0062 4.916e-4,0.0043 0.00155,0.0085 0.00313,0.0125 0.005,0.01266 0.014956,0.02266 0.021875,0.03438 0.0079,0.01338 0.011681,0.02872 0.015625,0.04375 0.00469,0.01786 0.00974,0.03563 0.015625,0.05313 0.00346,0.01029 0.00751,0.02092 0.015625,0.02813 0.0022,0.002 0.00472,0.0037 0.00625,0.0062 0.00172,0.0028 0.00195,0.0063 0.00313,0.0094 0.00162,0.0043 0.00512,0.0078 0.00938,0.0094"
     id="path4282"
     inkscape:path-effect="#path-effect4284"
     inkscape:original-d="m 4.25,10.41875 c 0.00521,0.0052 0.011401,0.0096 0.015625,0.01562 0.00459,0.0066 0.013396,0.03171 0.015625,0.04062 0.00129,0.0051 0.00126,0.01066 0.00313,0.01562 0.00243,0.0065 0.013005,0.02158 0.015625,0.02813 7.738e-4,0.0019 0,0.0042 0,0.0062 0.00104,0.0042 0.00143,0.0086 0.00313,0.0125 0.00526,0.01227 0.015496,0.0229 0.021875,0.03438 0.00678,0.0122 0.010639,0.03046 0.015625,0.04375 0.00656,0.01749 0.00905,0.03558 0.015625,0.05313 0.00334,0.0089 0.00984,0.02041 0.015625,0.02813 0.00177,0.0023 0.00474,0.0038 0.00625,0.0062 0.0017,0.0028 0.00143,0.0066 0.00313,0.0094 0.00227,0.0038 0.00625,0.0062 0.00938,0.0094"
     inkscape:connector-curvature="0" />
  <path
     style="opacity:1;fill:#ffffff;fill-opacity:1;stroke:#ffffff;stroke-width:0.31999999;stroke-miterlimit:4;stroke-dasharray:none;stroke-opacity:1"
     id="path4290"
     sodipodi:type="arc"
     sodipodi:cx="4.3203125"
     sodipodi:cy="10.890625"
     sodipodi:rx="0.1109375"
     sodipodi:ry="0.109375"
     sodipodi:start="4.7193703"
     sodipodi:end="1.5812683"
     d="m 4.321087,10.781253 a 0.1109375,0.109375 0 0 1 0.095749,0.05546 0.1109375,0.109375 0 0 1 -9.691e-4,0.109481 0.1109375,0.109375 0 0 1 -0.096716,0.0538 l 0.00116,-0.109369 z" />
  <path
     style="opacity:1;fill:#ffffff;fill-opacity:1;stroke:#ffffff;stroke-width:0.31999999;stroke-miterlimit:4;stroke-dasharray:none;stroke-opacity:1"
     id="path4292"
     sodipodi:type="arc"
     sodipodi:cx="4.3031249"
     sodipodi:cy="10.809375"
     sodipodi:rx="0.068750001"
     sodipodi:ry="0.075000003"
     sodipodi:start="4.7193703"
     sodipodi:end="1.5812683"
     d="m 4.3036049,10.734377 a 0.06875,0.075 0 0 1 0.059337,0.03803 0.06875,0.075 0 0 1 -6.006e-4,0.07507 0.06875,0.075 0 0 1 -0.059937,0.03689 l 7.199e-4,-0.075 z" />
  <path
     style="opacity:1;fill:#ffffff;fill-opacity:1;stroke:#ffffff;stroke-width:0.31999999;stroke-miterlimit:4;stroke-dasharray:none;stroke-opacity:1"
     id="path4294"
     sodipodi:type="arc"
     sodipodi:cx="4.4468746"
     sodipodi:cy="10.9375"
     sodipodi:rx="0.065624997"
     sodipodi:ry="0.056249999"
     sodipodi:start="4.7193703"
     sodipodi:end="1.5812683"
     d="m 4.4473328,10.881251 a 0.065625,0.05625 0 0 1 0.05664,0.02852 0.065625,0.05625 0 0 1 -5.733e-4,0.0563 0.065625,0.05625 0 0 1 -0.057212,0.02767 l 6.872e-4,-0.05625 z" />
  <ellipse
     style="opacity:1;fill:#000000;fill-opacity:1;stroke:#000000;stroke-width:0.12176086;stroke-miterlimit:4;stroke-dasharray:none;stroke-opacity:1"
     id="path4307"
     cx="4.4078121"
     cy="11.420312"
     rx="0.044432066"
     ry="0.047557056" />
  <path
     style="opacity:1;fill:#ffffff;fill-opacity:1;stroke:#ffffff;stroke-width:0.31999999;stroke-miterlimit:4;stroke-dasharray:none;stroke-opacity:1"
     id="path4309"
     sodipodi:type="arc"
     sodipodi:cx="4.1437502"
     sodipodi:cy="11.109375"
     sodipodi:rx="0.084375001"
     sodipodi:ry="0.053125001"
     sodipodi:start="4.7193703"
     sodipodi:end="1.5812683"
     d="m 4.1443392,11.056251 a 0.084375,0.053125 0 0 1 0.072823,0.02694 0.084375,0.053125 0 0 1 -7.371e-4,0.05318 0.084375,0.053125 0 0 1 -0.073559,0.02613 l 8.836e-4,-0.05312 z" />
  <path
     style="opacity:1;fill:#ffffff;fill-opacity:1;stroke:#ffffff;stroke-width:0.31999999;stroke-miterlimit:4;stroke-dasharray:none;stroke-opacity:1"
     id="path4311"
     sodipodi:type="arc"
     sodipodi:cx="4.2703123"
     sodipodi:cy="11.153125"
     sodipodi:rx="0.045312501"
     sodipodi:ry="0.018750001"
     sodipodi:start="4.7193703"
     sodipodi:end="1.5812683"
     d="m 4.2706286,11.134375 a 0.0453125,0.01875 0 0 1 0.039109,0.0095 0.0453125,0.01875 0 0 1 -3.958e-4,0.01877 0.0453125,0.01875 0 0 1 -0.039504,0.0092 l 4.745e-4,-0.01875 z" />
  <path
     style="opacity:1;fill:#ffffff;fill-opacity:1;stroke:#ffffff;stroke-width:0.31999999;stroke-miterlimit:4;stroke-dasharray:none;stroke-opacity:1"
     id="path4313"
     sodipodi:type="arc"
     sodipodi:cx="3.9953125"
     sodipodi:cy="11.234375"
     sodipodi:rx="0.092187509"
     sodipodi:ry="0.078125"
     sodipodi:start="4.7193703"
     sodipodi:end="1.5812683"
     d="m 3.995956,11.156252 a 0.09218751,0.078125 0 0 1 0.079566,0.03961 0.09218751,0.078125 0 0 1 -8.053e-4,0.0782 0.09218751,0.078125 0 0 1 -0.08037,0.03843 l 9.654e-4,-0.07812 z" />
  <path
     style="opacity:1;fill:#ffffff;fill-opacity:1;stroke:#ffffff;stroke-width:0.31999999;stroke-miterlimit:4;stroke-dasharray:none;stroke-opacity:1"
     id="path4318"
     sodipodi:type="arc"
     sodipodi:cx="4.1750002"
     sodipodi:cy="11.225"
     sodipodi:rx="0.037500001"
     sodipodi:ry="0.025"
     sodipodi:start="4.7193703"
     sodipodi:end="1.5812683"
     d="m 4.175262,11.200001 a 0.0375,0.025 0 0 1 0.032366,0.01268 0.0375,0.025 0 0 1 -3.276e-4,0.02502 0.0375,0.025 0 0 1 -0.032693,0.0123 l 3.927e-4,-0.025 z" />
  <path
     style="opacity:1;fill:#ffffff;fill-opacity:1;stroke:#ffffff;stroke-width:0.31999999;stroke-miterlimit:4;stroke-dasharray:none;stroke-opacity:1"
     id="path4320"
     sodipodi:type="arc"
     sodipodi:cx="4.3328123"
     sodipodi:cy="11.020312"
     sodipodi:rx="0.076562501"
     sodipodi:ry="0.095312491"
     sodipodi:start="4.7193703"
     sodipodi:end="1.5812683"
     d="m 4.3333468,10.925002 a 0.0765625,0.09531249 0 0 1 0.06608,0.04833 0.0765625,0.09531249 0 0 1 -6.688e-4,0.0954 0.0765625,0.09531249 0 0 1 -0.066748,0.04688 l 8.017e-4,-0.09531 z" />
  <path
     inkscape:connector-curvature="0"
     d="m 3.9720171,2.0490694 c 0.087881,0.044802 0.087371,0.036322 0.1624277,0.1131425 0.024505,0.025081 0.04402,0.054621 0.06719,0.080939 0.017726,0.020136 0.037107,0.038754 0.055432,0.058347 0.036076,0.038573 0.044234,0.055396 0.033528,0.034646 -0.032113,0.010411 -0.064226,0.020822 -0.096338,0.031234 -0.1261611,0.040902 0.2496321,-0.00838 0.1270972,0.042366 l 0,0 c -0.033229,0.01376 -0.066458,0.027521 -0.099687,0.041281 -0.00919,-0.0066 -0.01927,-0.012114 -0.027564,-0.01981 C 4.1816479,2.4196567 4.1713215,2.4059967 4.1597407,2.3935631 4.1392687,2.3715863 4.1176927,2.3506175 4.0979471,2.3279863 4.0488444,2.2717119 4.0153555,2.216098 3.9457429,2.1804399 3.8277022,2.1199752 3.8538599,1.9888326 3.9720171,2.0490694 Z"
     id="path4401"
     style="fill:#ffffff;fill-opacity:1;fill-rule:nonzero;stroke:#ffffff;stroke-width:0.80000001px;stroke-linecap:butt;stroke-linejoin:miter;stroke-opacity:1;opacity:1" />
  <path
     style="opacity:1;fill:#ffffff;fill-opacity:1;stroke:#ffffff;stroke-width:0.31999999;stroke-miterlimit:4;stroke-dasharray:none;stroke-opacity:1"
     id="path4418"
     sodipodi:type="arc"
     sodipodi:cx="4.567903"
     sodipodi:cy="2.1039596"
     sodipodi:rx="0.0081618279"
     sodipodi:ry="0.10610376"
     sodipodi:start="4.7193703"
     sodipodi:end="1.5812683"
     d="m 4.56796,1.9978584 a 0.00816183,0.10610376 0 0 1 0.00704,0.0538 0.00816183,0.10610376 0 0 1 -7.13e-5,0.1062066 0.00816183,0.10610376 0 0 1 -0.00712,0.052193 l 8.54e-5,-0.1060979 z" />
  <path
     style="opacity:1;fill:#ffffff;fill-opacity:1;stroke:#ffffff;stroke-width:0.31999999;stroke-miterlimit:4;stroke-dasharray:none;stroke-opacity:1"
     id="path4420"
     sodipodi:type="arc"
     sodipodi:cx="3.7081904"
     sodipodi:cy="1.2415262"
     sodipodi:rx="0.013603047"
     sodipodi:ry="0.081618279"
     sodipodi:start="4.7193703"
     sodipodi:end="1.5812683"
     d="m 3.7082854,1.15991 a 0.01360305,0.08161828 0 0 1 0.011741,0.041384 0.01360305,0.08161828 0 0 1 -1.188e-4,0.081697 0.01360305,0.08161828 0 0 1 -0.011859,0.040149 l 1.424e-4,-0.081614 z" />
  <path
     style="opacity:1;fill:#ffffff;fill-opacity:1;stroke:#ffffff;stroke-width:0.31999999;stroke-miterlimit:4;stroke-dasharray:none;stroke-opacity:1"
     id="path4422"
     sodipodi:type="arc"
     sodipodi:cx="3.942163"
     sodipodi:cy="1.5924848"
     sodipodi:rx="0.16051595"
     sodipodi:ry="0.28566399"
     sodipodi:start="4.7193703"
     sodipodi:end="1.5812683"
     d="M 3.9432836,1.3068278 A 0.16051595,0.28566399 0 0 1 4.081823,1.4516725 0.16051595,0.28566399 0 0 1 4.0804208,1.7376134 0.16051595,0.28566399 0 0 1 3.9404821,1.8781332 L 3.942163,1.5924848 Z" />
  <path
     style="opacity:1;fill:#ffffff;fill-opacity:1;stroke:#ffffff;stroke-width:0.31999999;stroke-miterlimit:4;stroke-dasharray:none;stroke-opacity:1"
     id="path4427"
     sodipodi:type="arc"
     sodipodi:cx="4.2359891"
     sodipodi:cy="1.6849855"
     sodipodi:rx="0.024485486"
     sodipodi:ry="0.12242743"
     sodipodi:start="4.7193703"
     sodipodi:end="1.5812683"
     d="m 4.23616,1.5625611 a 0.02448549,0.12242743 0 0 1 0.021133,0.062076 0.02448549,0.12242743 0 0 1 -2.139e-4,0.1225461 0.02448549,0.12242743 0 0 1 -0.021347,0.060223 l 2.564e-4,-0.1224207 z" />
  <path
     style="opacity:1;fill:#ffffff;fill-opacity:1;stroke:#ffffff;stroke-width:0.31999999;stroke-miterlimit:4;stroke-dasharray:none;stroke-opacity:1"
     id="path4429"
     sodipodi:type="arc"
     sodipodi:cx="4.4835644"
     sodipodi:cy="2.0821946"
     sodipodi:rx="0.15235412"
     sodipodi:ry="0.13875107"
     sodipodi:start="4.7193703"
     sodipodi:end="1.5812683"
     d="M 4.484628,1.9434469 A 0.15235412,0.13875107 0 0 1 4.616123,2.0138 0.15235412,0.13875107 0 0 1 4.6147921,2.1526856 0.15235412,0.13875107 0 0 1 4.481969,2.220938 l 0.0016,-0.1387434 z" />
  <path
     style="opacity:1;fill:#ffffff;fill-opacity:1;stroke:#ffffff;stroke-width:0.31999999;stroke-miterlimit:4;stroke-dasharray:none;stroke-opacity:1"
     id="path4431"
     sodipodi:type="arc"
     sodipodi:cx="4.290401"
     sodipodi:cy="1.8754282"
     sodipodi:rx="0.084338889"
     sodipodi:ry="0.035367921"
     sodipodi:start="4.7193703"
     sodipodi:end="1.5812683"
     d="m 4.2909898,1.8400611 a 0.08433889,0.03536792 0 0 1 0.072792,0.017933 0.08433889,0.03536792 0 0 1 -7.367e-4,0.035402 0.08433889,0.03536792 0 0 1 -0.073527,0.017398 l 8.832e-4,-0.035366 z" />
  <path
     style="opacity:1;fill:#ffffff;fill-opacity:1;stroke:#ffffff;stroke-width:0.31999999;stroke-miterlimit:4;stroke-dasharray:none;stroke-opacity:1"
     id="path4433"
     sodipodi:type="arc"
     sodipodi:cx="4.1979003"
     sodipodi:cy="1.5380726"
     sodipodi:rx="0.07889767"
     sodipodi:ry="0.029926702"
     sodipodi:start="4.7193703"
     sodipodi:end="1.5812683"
     d="m 4.1984511,1.5081466 a 0.07889767,0.0299267 0 0 1 0.068096,0.015174 0.07889767,0.0299267 0 0 1 -6.892e-4,0.029956 0.07889767,0.0299267 0 0 1 -0.068783,0.014721 l 8.262e-4,-0.029925 z" />
  <path
     style="opacity:1;fill:#ffffff;fill-opacity:1;stroke:#ffffff;stroke-width:0.31999999;stroke-miterlimit:4;stroke-dasharray:none;stroke-opacity:1"
     id="path4435"
     sodipodi:type="arc"
     sodipodi:cx="4.3747396"
     sodipodi:cy="1.9434435"
     sodipodi:rx="0.059853405"
     sodipodi:ry="0.070735842"
     sodipodi:start="4.7193703"
     sodipodi:end="1.5812683"
     d="m 4.3751575,1.8727094 a 0.0598534,0.07073584 0 0 1 0.051659,0.035866 0.0598534,0.07073584 0 0 1 -5.228e-4,0.070804 0.0598534,0.07073584 0 0 1 -0.05218,0.034795 l 6.267e-4,-0.070732 z" />
  <path
     style="opacity:1;fill:#ffffff;fill-opacity:1;stroke:#ffffff;stroke-width:0.31999999;stroke-miterlimit:4;stroke-dasharray:none;stroke-opacity:1"
     id="path4437"
     sodipodi:type="arc"
     sodipodi:cx="4.4046664"
     sodipodi:cy="2.1420479"
     sodipodi:rx="0.062574014"
     sodipodi:ry="0.20948692"
     sodipodi:start="4.7193703"
     sodipodi:end="1.5812683"
     d="m 4.4051033,1.9325661 a 0.06257401,0.20948692 0 0 1 0.054007,0.1062194 0.06257401,0.20948692 0 0 1 -5.466e-4,0.20969 0.06257401,0.20948692 0 0 1 -0.054552,0.1030478 l 6.552e-4,-0.2094754 z" />
  <path
     style="opacity:1;fill:#ffffff;fill-opacity:1;stroke:#ffffff;stroke-width:0.31999999;stroke-miterlimit:4;stroke-dasharray:none;stroke-opacity:1"
     id="path4439"
     sodipodi:type="arc"
     sodipodi:cx="4.4808435"
     sodipodi:cy="1.9924145"
     sodipodi:rx="0.04080914"
     sodipodi:ry="0.059853405"
     sodipodi:start="4.7193703"
     sodipodi:end="1.5812683"
     d="m 4.4811284,1.9325625 a 0.04080914,0.0598534 0 0 1 0.035222,0.030348 0.04080914,0.0598534 0 0 1 -3.565e-4,0.059911 0.04080914,0.0598534 0 0 1 -0.035578,0.029442 l 4.273e-4,-0.05985 z" />
  <path
     style="fill:none;fill-rule:evenodd;stroke:#000000;stroke-width:0.39457911;stroke-linecap:butt;stroke-linejoin:miter;stroke-miterlimit:4;stroke-dasharray:none;stroke-opacity:1"
     d="m 1.8891246,4.0655401 3.7665018,0.010967 0.00604,0.01645"
     id="path4448"
     inkscape:connector-curvature="0" />
  <path
     inkscape:connector-curvature="0"
     id="path4470"
     d="m 1.8378284,8.961169 3.7665018,0.010967 0.00604,0.01645"
     style="fill:none;fill-rule:evenodd;stroke:#000000;stroke-width:0.39457911;stroke-linecap:butt;stroke-linejoin:miter;stroke-miterlimit:4;stroke-dasharray:none;stroke-opacity:1" />
</svg>
