<?xml version="1.0" encoding="UTF-8" ?>
<!DOCTYPE svg PUBLIC "-//W3C//DTD SVG 1.1//EN" "http://www.w3.org/Graphics/SVG/1.1/DTD/svg11.dtd">
<svg width="12pt" height="12pt" viewBox="0 0 16 16" version="1.1" xmlns="http://www.w3.org/2000/svg">
<path fill="#ffffff" d=" M 0.00 0.00 L 6.33 0.00 C 3.92 1.32 3.59 3.93 3.41 6.41 C 2.95 6.87 2.01 7.81 1.54 8.27 C 2.84 8.82 4.18 9.22 5.55 9.53 C 5.50 11.69 5.47 13.85 5.33 16.00 L 0.00 16.00 L 0.00 0.00 Z" />
<path fill="#323232" d=" M 6.33 0.00 L 9.71 0.00 C 12.08 1.35 12.40 3.97 12.60 6.44 C 13.07 6.90 14.00 7.82 14.47 8.28 C 13.17 8.81 11.82 9.21 10.45 9.52 C 10.50 11.68 10.55 13.84 10.66 16.00 L 8.90 16.00 C 9.02 13.70 9.20 11.41 9.42 9.12 C 8.71 9.12 7.29 9.12 6.58 9.12 C 6.80 11.41 6.99 13.70 7.10 16.00 L 5.33 16.00 C 5.47 13.85 5.50 11.69 5.55 9.53 C 4.18 9.22 2.84 8.82 1.54 8.27 C 2.01 7.81 2.95 6.87 3.41 6.41 C 3.59 3.93 3.92 1.32 6.33 0.00 Z" />
<path fill="#ffffff" d=" M 9.71 0.00 L 16.00 0.00 L 16.00 16.00 L 10.66 16.00 C 10.55 13.84 10.50 11.68 10.45 9.52 C 11.82 9.21 13.17 8.81 14.47 8.28 C 14.00 7.82 13.07 6.90 12.60 6.44 C 12.40 3.97 12.08 1.35 9.71 0.00 Z" />
<path fill="#ffffff" d=" M 4.98 6.69 C 4.56 4.13 5.52 1.95 7.97 0.86 C 10.48 1.90 11.44 4.10 11.03 6.69 C 9.01 6.69 6.99 6.69 4.98 6.69 Z" />
<path fill="#ffffff" d=" M 6.58 9.12 C 7.29 9.12 8.71 9.12 9.42 9.12 C 9.20 11.41 9.02 13.70 8.90 16.00 L 7.10 16.00 C 6.99 13.70 6.80 11.41 6.58 9.12 Z" />
</svg>
