<?xml version="1.0" encoding="UTF-8" ?>
<!DOCTYPE svg PUBLIC "-//W3C//DTD SVG 1.1//EN" "http://www.w3.org/Graphics/SVG/1.1/DTD/svg11.dtd">
<svg width="13pt" height="13pt" viewBox="0 0 256 256" version="1.1" xmlns="http://www.w3.org/2000/svg">
<path fill="#ffffff" d=" M 0.00 0.00 L 256.00 0.00 L 256.00 64.45 C 242.12 64.39 228.23 64.44 214.35 64.43 C 214.38 59.65 214.37 54.88 214.37 50.10 C 205.37 50.09 196.36 50.08 187.36 50.11 C 187.37 54.88 187.36 59.65 187.38 64.43 C 147.95 64.41 108.52 64.45 69.09 64.41 C 69.15 59.65 69.13 54.89 69.13 50.13 C 60.12 50.06 51.11 50.09 42.09 50.11 C 42.12 54.87 42.11 59.64 42.11 64.41 C 28.08 64.47 14.04 64.39 0.00 64.45 L 0.00 0.00 Z" />
<path fill="#000000" d=" M 42.09 50.11 C 51.11 50.09 60.12 50.06 69.13 50.13 C 69.13 54.89 69.15 59.65 69.09 64.41 C 108.52 64.45 147.95 64.41 187.38 64.43 C 187.36 59.65 187.37 54.88 187.36 50.11 C 196.36 50.08 205.37 50.09 214.37 50.10 C 214.37 54.88 214.38 59.65 214.35 64.43 C 228.23 64.44 242.12 64.39 256.00 64.45 L 256.00 205.87 C 170.67 205.92 85.33 205.94 0.00 205.86 L 0.00 64.45 C 14.04 64.39 28.08 64.47 42.11 64.41 C 42.11 59.64 42.12 54.87 42.09 50.11 Z" />
<path fill="#ffffff" d=" M 11.15 75.64 C 89.17 75.59 167.19 75.62 245.22 75.62 C 245.20 115.55 245.21 155.48 245.21 195.42 C 167.20 195.40 89.18 195.42 11.16 195.40 C 11.21 155.48 11.24 115.56 11.15 75.64 Z" />
<path fill="#000000" d=" M 188.75 95.11 C 192.45 95.10 196.15 95.09 199.86 95.12 C 199.83 99.97 199.85 104.82 199.83 109.68 C 204.68 109.69 209.53 109.68 214.39 109.68 C 214.36 113.38 214.37 117.08 214.39 120.77 C 209.54 120.78 204.69 120.77 199.84 120.78 C 199.85 125.64 199.80 130.50 199.89 135.37 C 196.17 135.40 192.46 135.39 188.74 135.38 C 188.76 130.51 188.75 125.64 188.76 120.77 C 183.92 120.78 179.08 120.79 174.25 120.77 C 174.27 117.07 174.28 113.38 174.25 109.69 C 179.09 109.67 183.94 109.69 188.78 109.68 C 188.73 104.82 188.76 99.96 188.75 95.11 Z" />
<path fill="#000000" d=" M 42.08 109.69 C 55.44 109.67 68.79 109.68 82.15 109.69 C 82.14 113.38 82.15 117.07 82.15 120.77 C 68.79 120.78 55.43 120.79 42.08 120.76 C 42.12 117.07 42.12 113.38 42.08 109.69 Z" />
<path fill="#ffffff" d=" M 0.00 205.86 C 85.33 205.94 170.67 205.92 256.00 205.87 L 256.00 256.00 L 0.00 256.00 L 0.00 205.86 Z" />
</svg>
