<?xml version="1.0" encoding="UTF-8" standalone="no"?>
<!-- Created with Inkscape (http://www.inkscape.org/) -->

<svg
   xmlns:dc="http://purl.org/dc/elements/1.1/"
   xmlns:cc="http://creativecommons.org/ns#"
   xmlns:rdf="http://www.w3.org/1999/02/22-rdf-syntax-ns#"
   xmlns:svg="http://www.w3.org/2000/svg"
   xmlns="http://www.w3.org/2000/svg"
   xmlns:sodipodi="http://sodipodi.sourceforge.net/DTD/sodipodi-0.dtd"
   xmlns:inkscape="http://www.inkscape.org/namespaces/inkscape"
   width="16"
   height="16"
   id="svg2"
   version="1.1"
   inkscape:version="0.48.4 r9939"
   sodipodi:docname="register.svg">
  <defs
     id="defs4" />
  <sodipodi:namedview
     id="base"
     pagecolor="#ffffff"
     bordercolor="#666666"
     borderopacity="1.0"
     inkscape:pageopacity="0.0"
     inkscape:pageshadow="2"
     inkscape:zoom="58.331155"
     inkscape:cx="8.4935373"
     inkscape:cy="11.296017"
     inkscape:document-units="px"
     inkscape:current-layer="layer1"
     showgrid="false"
     inkscape:window-width="784"
     inkscape:window-height="821"
     inkscape:window-x="0"
     inkscape:window-y="0"
     inkscape:window-maximized="0"
     showguides="true"
     inkscape:guide-bbox="true" />
  <metadata
     id="metadata7">
    <rdf:RDF>
      <cc:Work
         rdf:about="">
        <dc:format>image/svg+xml</dc:format>
        <dc:type
           rdf:resource="http://purl.org/dc/dcmitype/StillImage" />
        <dc:title />
      </cc:Work>
    </rdf:RDF>
  </metadata>
  <g
     inkscape:label="Layer 1"
     inkscape:groupmode="layer"
     id="layer1"
     transform="translate(0,-1036.3622)">
    <rect
       style="fill:#ffffff;fill-opacity:1;stroke:#000000;stroke-opacity:1"
       id="rect3256"
       width="12.291083"
       height="13.455503"
       x="1.983824"
       y="1.2075729"
       transform="translate(0,1036.3622)" />
    <rect
       style="fill:#ffffff;fill-opacity:1;stroke:#000000;stroke-opacity:1"
       id="rect3258"
       width="2.6738498"
       height="3.1482425"
       x="3.6657617"
       y="9.7897682"
       transform="translate(0,1036.3622)" />
    <rect
       style="fill:#ffffff;fill-opacity:1;stroke:#000000;stroke-opacity:1"
       id="rect3258-7"
       width="2.6738498"
       height="3.1482425"
       x="9.8759937"
       y="1046.1304" />
    <path
       style="fill:none;stroke:#000000;stroke-width:1.03306091px;stroke-linecap:butt;stroke-linejoin:miter;stroke-opacity:1"
       d="m 6.1505748,1042.6853 0,-3.0289 c 0,0 -0.6988613,0.1169 -1.0128785,0.2702 -0.2949661,0.144 -0.5960728,0.3258 -0.7853646,0.594 -0.1523127,0.2158 -0.2500808,0.4916 -0.2387733,0.7555 0.01306,0.3048 0.145725,0.6187 0.3494175,0.8458 0.2208148,0.2462 0.5549431,0.377 0.8705157,0.4758 0.2614022,0.082 0.8170832,0.088 0.8170832,0.088 z"
       id="path3291"
       inkscape:connector-curvature="0"
       sodipodi:nodetypes="ccaaaaac" />
    <path
       style="fill:none;stroke:#000000;stroke-width:1.03306091px;stroke-linecap:butt;stroke-linejoin:miter;stroke-opacity:1"
       d="m 9.8493973,1042.75 0,-3.0289 c 0,0 0.6988617,0.1169 1.0128787,0.2702 0.294966,0.144 0.596073,0.3258 0.785365,0.594 0.152313,0.2158 0.250081,0.4916 0.238773,0.7555 -0.01306,0.3048 -0.145725,0.6187 -0.349418,0.8458 -0.220815,0.2462 -0.554943,0.377 -0.870515,0.4758 -0.261402,0.082 -0.8170837,0.088 -0.8170837,0.088 z"
       id="path3291-1"
       inkscape:connector-curvature="0"
       sodipodi:nodetypes="ccaaaaac" />
    <path
       style="fill:none;stroke:#000000;stroke-width:1px;stroke-linecap:butt;stroke-linejoin:miter;stroke-opacity:1"
       d="m 6.1671052,4.5283219 3.6657618,0"
       id="path3311"
       inkscape:connector-curvature="0"
       transform="translate(0,1036.3622)" />
    <path
       style="fill:none;stroke:#000000;stroke-width:1px;stroke-linecap:butt;stroke-linejoin:miter;stroke-opacity:1"
       d="m 6.2102318,5.3908541 3.4501287,0"
       id="path3313"
       inkscape:connector-curvature="0"
       transform="translate(0,1036.3622)" />
  </g>
</svg>
